<?xml version="1.0" encoding="utf-8"?>
<svg version="1.1" id="Ebene_1" xmlns="http://www.w3.org/2000/svg" xmlns:xlink="http://www.w3.org/1999/xlink" x="0px" y="0px"
   viewBox="0 0 239.9 56.7" style="enable-background:new 0 0 239.9 56.7;" xml:space="preserve">
<style type="text/css">
  .st0{fill:#ffffff;}
</style>
<g>
  <g>
    <path class="st0" d="M50.1,10.1c-4.9-5.8-11.7-9.4-19.2-10C30,0,29.1,0,28.3,0c-6.6,0-13,2.3-18.2,6.6c-5.8,4.9-9.4,11.7-10,19.2
      c-0.7,7.5,1.7,14.9,6.5,20.7c4.9,5.8,11.7,9.4,19.2,10c7.5,0.7,14.9-1.7,20.7-6.5c5.8-4.9,9.4-11.7,10-19.2
      C57.2,23.3,54.9,15.9,50.1,10.1z M34.9,8.4C34.9,8.4,34.9,8.4,34.9,8.4C34.9,8.5,34.9,8.5,34.9,8.4l3.2,6.4c0,0,0,0,0,0l-6.4,3.2
      c0,0,0,0,0,0c0,0,0,0,0,0l-3.2-6.4c0,0,0,0,0,0c0,0,0,0,0,0L34.9,8.4z M19.5,11.2L26,8c0,0,0,0,0,0l3.9,1.3c0,0,0,0,0,0s0,0,0,0
      l-6.4,3.2c0,0,0,0,0,0c0,0,0,0,0,0L19.5,11.2C19.5,11.3,19.5,11.3,19.5,11.2C19.5,11.3,19.5,11.2,19.5,11.2z M9.6,38
      C9.6,38,9.6,38,9.6,38C9.5,38,9.5,38,9.6,38l1.9-5.7c0,0,0,0,0,0c0,0,0,0,0,0l5.7,1.9c0,0,0,0,0,0c0,0,0,0,0,0L9.6,38
      C9.6,38,9.6,38,9.6,38z M16.2,36.5C16.2,36.5,16.2,36.5,16.2,36.5C16.2,36.5,16.2,36.5,16.2,36.5L27.2,31c0,0,0,0,0,0L32.7,42
      c0,0,0,0,0,0c0,0,0,0,0,0c0,0,0,0,0,0L16.2,36.5z M34.5,50.5C34.5,50.5,34.5,50.5,34.5,50.5C34.5,50.5,34.5,50.5,34.5,50.5
      l-5.7-1.9c0,0,0,0,0,0l1.9-5.7c0,0,0,0,0,0c0,0,0,0,0,0L34.5,50.5C34.5,50.5,34.5,50.5,34.5,50.5z M40.1,22.6l-15.5,7.7
      c0,0,0,0,0,0c0,0,0,0,0,0c0,0,0,0,0,0l3.9-11.6c0,0,0,0,0,0L40.1,22.6C40.2,22.6,40.2,22.6,40.1,22.6
      C40.2,22.6,40.2,22.6,40.1,22.6z M47.7,22.2l-4.1,2.1c0,0,0,0,0,0c0,0,0,0,0,0l-2.1-4.1c0,0,0,0,0,0c0,0,0,0,0,0L47.7,22.2
      C47.7,22.2,47.7,22.2,47.7,22.2C47.7,22.2,47.7,22.2,47.7,22.2z"/>
  </g>
  <path class="st0" d="M217.2,27.5l5.6-6.3c0,0,0,0,0-0.1c0,0,0,0,0,0h-4.4c0,0,0,0,0,0l-5.7,6.5v-6.4c0,0,0,0,0,0h-3.8c0,0,0,0,0,0
    v15.2c0,0,0,0,0,0h3.8c0,0,0,0,0,0v-3.7l1.9-2.2l3.9,5.9c0,0,0,0,0,0h4.6c0,0,0,0,0,0c0,0,0,0,0-0.1L217.2,27.5z M201.9,21.2
    C201.8,21.2,201.8,21.2,201.9,21.2l0,15.2c0,0,0,0,0,0h3.8c0,0,0,0,0,0V21.2c0,0,0,0,0,0H201.9z M194.6,21.1
    C194.6,21.1,194.6,21.2,194.6,21.1l-4.1,9l-4-8.9c0,0,0,0,0,0h-4.2c0,0,0,0,0,0v15.2c0,0,0,0,0,0h3.4c0,0,0,0,0,0v-9.6l3.5,8.1
    c0,0,0,0,0,0h2.5c0,0,0,0,0,0l3.5-8.1l0,9.6c0,0,0,0,0,0h3.4c0,0,0,0,0,0V21.2c0,0,0,0,0,0H194.6z M171.6,33.3v-3h7.1c0,0,0,0,0,0
    v-3c0,0,0,0,0,0h-7.1v-2.9h7.9c0,0,0,0,0,0v-3c0,0,0,0,0,0h-11.8c0,0,0,0,0,0v15.2c0,0,0,0,0,0h12c0,0,0,0,0,0v-3c0,0,0,0,0,0
    H171.6z M140.1,27.5l5.6-6.3c0,0,0,0,0-0.1c0,0,0,0,0,0h-4.4c0,0,0,0,0,0l-5.7,6.5v-6.4c0,0,0,0,0,0h-3.8c0,0,0,0,0,0v15.2
    c0,0,0,0,0,0h3.8c0,0,0,0,0,0v-3.7l1.9-2.2l4,5.9c0,0,0,0,0,0h4.6c0,0,0,0,0,0c0,0,0,0,0-0.1L140.1,27.5z M125,21.2
    C124.9,21.2,124.9,21.2,125,21.2l0,9.3l-6.9-9.2c0,0,0,0,0,0h-3.4c0,0,0,0,0,0v15.2c0,0,0,0,0,0h3.6c0,0,0,0,0,0v-9.2l6.8,9.2
    c0,0,0,0,0,0h3.4c0,0,0,0,0,0V21.2c0,0,0,0,0,0H125z M69.9,21.2C69.9,21.2,69.9,21.2,69.9,21.2l0,15.2c0,0,0,0,0,0h3.8c0,0,0,0,0,0
    v-5.5h6.7c0,0,0,0,0,0v-3c0,0,0,0,0,0h-6.7v-3.4h7.3c0,0,0,0,0,0v-3c0,0,0,0,0,0H69.9z M233.6,21.3h-3.9l-6.5,15.1h3.8l1.1-2.8
    c0,0,0,0,0,0h6.6c0,0,0,0,0,0l1.1,2.8h4L233.6,21.3z M233.7,30.7C233.7,30.7,233.7,30.7,233.7,30.7l-4.4,0c0,0,0,0,0,0c0,0,0,0,0,0
    l2.2-5.6c0,0,0,0,0,0c0,0,0,0,0,0L233.7,30.7C233.8,30.7,233.8,30.7,233.7,30.7z M152.6,21.3l-6.5,15.1h3.8l1.1-2.8c0,0,0,0,0,0
    h6.6c0,0,0,0,0,0l1.1,2.8h4l-6.3-15.1H152.6z M156.6,30.7C156.6,30.7,156.6,30.7,156.6,30.7l-4.4,0c0,0,0,0,0,0c0,0,0,0,0,0
    l2.2-5.6c0,0,0,0,0,0c0,0,0,0,0,0L156.6,30.7C156.6,30.7,156.6,30.7,156.6,30.7z M103.5,21.3L97,36.3h3.8l1.1-2.8c0,0,0,0,0,0h6.6
    c0,0,0,0,0,0l1.1,2.8h4l-6.3-15.1H103.5z M107.5,30.7C107.5,30.7,107.4,30.7,107.5,30.7l-4.4,0c0,0,0,0,0,0c0,0,0,0,0,0l2.2-5.6
    c0,0,0,0,0,0c0,0,0,0,0,0L107.5,30.7C107.5,30.7,107.5,30.7,107.5,30.7z M93.2,31.4C93.2,31.4,93.2,31.3,93.2,31.4
    c1.8-0.9,2.7-2.6,2.7-4.9c0-3.3-2.3-5.2-6.2-5.2H83v15.1h3.7v-4.2c0,0,0,0,0,0h3c0,0,0,0,0,0l2.2,4.2h4.2L93.2,31.4
    C93.2,31.4,93.2,31.4,93.2,31.4z M89.7,29.1h-2.9c0,0,0,0,0,0v-4.8c0,0,0,0,0,0h2.9c1.7,0,2.7,0.9,2.7,2.4
    C92.4,28.2,91.4,29.1,89.7,29.1z"/>
</g>
</svg>
