<?xml version="1.0" encoding="UTF-8"?>
<svg width="62px" height="61px" viewBox="0 0 62 61" version="1.1" xmlns="http://www.w3.org/2000/svg" xmlns:xlink="http://www.w3.org/1999/xlink">
    <title>9E23029C-53DF-4FFD-93CF-6C8BAECBEC97@2x</title>
    <g id="1.-Desktop---Archive" stroke="none" stroke-width="1" fill="none" fill-rule="evenodd" stroke-linejoin="round">
        <g id="05-PickNik--Moveit" transform="translate(-407.000000, -2971.000000)" stroke="#0C5FF8">
            <g id="3-Goals" transform="translate(-5.000000, 2776.000000)">
                <g id="1" transform="translate(257.000000, 196.000000)">
                    <g transform="translate(157.000000, 0.000000)">
                        <g id="Group-6" transform="translate(0.000000, 12.000000)">
                            <path d="M27.8139535,0 L27.8139929,5.0316982 C29.3078713,5.46277876 30.7271112,6.06987523 32.0478033,6.82907835 L35.4674522,3.40992804 L42.1206842,10.06316 L38.8192687,13.3648986 C39.7441273,14.8490004 40.4725904,16.4681553 40.9683018,18.1860071 L46,18.1860465 L46,27.8139535 L41.2439634,27.8131398 C40.8227064,29.6699923 40.1331081,31.4249344 39.2180924,33.0350423 L42.1206842,35.93684 L35.4674522,42.590072 L32.7156581,39.8385586 C31.2096557,40.7874142 29.5629777,41.533374 27.8139929,42.0380692 L27.8139535,46 L18.1860465,46 L18.1868602,42.3137309 C16.0687777,41.8332096 14.083297,41.0035332 12.2941263,39.8884099 L9.59377227,42.590072 L2.94054028,35.93684 L5.75940448,33.1177336 C4.82085064,31.4850839 4.11474892,29.7018294 3.68626913,27.8131398 L3.55271368e-14,27.8139535 L3.55271368e-14,18.1860465 L3.96193076,18.1860071 C4.46662602,16.4370223 5.21258582,14.7903443 6.16144135,13.2843419 L2.94054028,10.06316 L9.59377227,3.40992804 L12.9649577,6.7819076 C14.5750656,5.86689191 16.3300077,5.17729362 18.1868602,4.75603657 L18.1860465,0 L27.8139535,0 Z" id="Combined-Shape" stroke-width="2.16"></path>
                            <circle id="Oval" stroke-width="2.4" cx="22.8" cy="22.8" r="10.2"></circle>
                            <circle id="Oval-Copy-2" stroke-width="2.4" cx="22.8" cy="22.8" r="4.2"></circle>
                        </g>
                        <path d="M42,3 C43.4109836,3.61608062 44.8157358,4.0367235 46.2142566,4.26192866 C47.6127774,4.48713382 49.076179,4.44293885 50.6044614,4.12934376 C50.3018533,5.52178641 50.3024871,7.03001679 50.6063628,8.6540349 C50.9102386,10.278053 51.3747843,11.726708 52,13 C50.6271218,12.3774121 49.1695116,11.9218215 47.6271693,11.6332285 C46.084827,11.3446354 44.5855518,11.3350464 43.1293438,11.6044614 C43.4528483,10.2668501 43.488088,8.81240372 43.235063,7.24112222 C42.9820381,5.66984072 42.5703504,4.25613331 42,3 Z" id="Rectangle" stroke-width="2.4" transform="translate(47.000000, 8.000000) rotate(-315.000000) translate(-47.000000, -8.000000) "></path>
                        <path d="M51,15 C51.8465902,15.3696484 52.6894415,15.6220341 53.528554,15.7571572 C54.3676664,15.8922803 55.2457074,15.8657633 56.1626768,15.6776063 C55.981112,16.5130718 55.9814923,17.4180101 56.1638177,18.3924209 C56.3461431,19.3668318 56.6248706,20.2360248 57,21 C56.1762731,20.6264472 55.301707,20.3530929 54.3763016,20.1799371 C53.4508962,20.0067812 52.5513311,20.0010278 51.6776063,20.1626768 C51.871709,19.3601101 51.8928528,18.4874422 51.7410378,17.5446733 C51.5892228,16.6019044 51.3422102,15.75368 51,15 Z" id="Rectangle-Copy-5" stroke-width="2" transform="translate(54.000000, 18.000000) rotate(-315.000000) translate(-54.000000, -18.000000) "></path>
                    </g>
                </g>
            </g>
        </g>
    </g>
</svg>