<?xml version="1.0" encoding="UTF-8"?>
<svg width="15px" height="13px" viewBox="0 0 15 13" version="1.1" xmlns="http://www.w3.org/2000/svg" xmlns:xlink="http://www.w3.org/1999/xlink">
    <title>B9438BD1-A5DB-4211-9903-EFA59A4276B8</title>
    <g id="1.-Desktop---Archive" stroke="none" stroke-width="1" fill="none" fill-rule="evenodd">
        <g id="01-PickNik-Home" transform="translate(-1218.000000, -7641.000000)" fill="#FFFFFF" fill-rule="nonzero">
            <g id="Footer" transform="translate(0.000000, 7484.000000)">
                <path d="M1231.52113,160.028169 L1231.52113,158.514085 L1225.5,162.28169 L1219.47887,158.514085 L1219.47887,160.028169 L1225.5,163.760563 L1231.52113,160.028169 Z M1231.52113,157 C1231.94366,157.023474 1232.29577,157.176055 1232.57746,157.457746 C1232.85916,157.739438 1233,158.091547 1233,158.514085 L1233,167.528169 C1233,167.950706 1232.85916,168.302815 1232.57746,168.584507 C1232.29577,168.866199 1231.94366,169.018779 1231.52113,169.042254 L1219.47887,169.042254 C1219.05634,169.018779 1218.70423,168.866199 1218.42254,168.584507 C1218.14084,168.302815 1218,167.950706 1218,167.528169 L1218,158.514085 C1218,158.091547 1218.14084,157.739438 1218.42254,157.457746 C1218.70423,157.176055 1219.05634,157.023474 1219.47887,157 L1231.52113,157 Z" id="mail"></path>
            </g>
        </g>
    </g>
</svg>