<?xml version="1.0" encoding="UTF-8"?>
<svg width="14px" height="14px" viewBox="0 0 14 14" version="1.1" xmlns="http://www.w3.org/2000/svg" xmlns:xlink="http://www.w3.org/1999/xlink">
    <title>42AEB712-2D12-4C9F-A661-AF8E4DB478A7</title>
    <g id="1.-Desktop---Archive" stroke="none" stroke-width="1" fill="none" fill-rule="evenodd">
        <g id="01-PickNik-Home" transform="translate(-974.000000, -7638.000000)" fill="#FFFFFF" fill-rule="nonzero">
            <g id="Footer" transform="translate(0.000000, 7484.000000)">
                <path d="M976.807292,160.052083 C977.390628,161.170144 978.113711,162.160586 978.976562,163.023438 C979.839414,163.886289 980.829856,164.609372 981.947917,165.192708 L983.661458,163.479167 C983.904515,163.260416 984.171874,163.199652 984.463542,163.296875 C985.338546,163.588543 986.262148,163.734375 987.234375,163.734375 C987.453126,163.734375 987.635416,163.807291 987.78125,163.953125 C987.927084,164.098959 988,164.281249 988,164.5 L988,167.234375 C988,167.453126 987.927084,167.635416 987.78125,167.78125 C987.635416,167.927084 987.453126,168 987.234375,168 C983.491301,167.902777 980.374144,166.608519 977.882812,164.117188 C975.391481,161.625856 974.097223,158.508699 974,154.765625 C974,154.546874 974.072916,154.364584 974.21875,154.21875 C974.364584,154.072916 974.546874,154 974.765625,154 L977.5,154 C977.718751,154 977.901041,154.072916 978.046875,154.21875 C978.192709,154.364584 978.265625,154.546874 978.265625,154.765625 C978.265625,155.737852 978.411457,156.661454 978.703125,157.536458 C978.800348,157.828126 978.739584,158.095485 978.520833,158.338542 L976.807292,160.052083 Z" id="phone"></path>
            </g>
        </g>
    </g>
</svg>