<svg width="126" height="17" xmlns="http://www.w3.org/2000/svg"><path d="M66.772 14.997V2h2.735v10.526h4.798c.85 0 .98-.135.98-1.247V2h2.734v9.863c.035 2.61-.684 3.134-2.437 3.134h-8.81zm56.493.003V2.003H126V15h-2.735zM80.753 2h8.81c1.256 0 2.472.182 2.436 2.807v10.19h-2.734V5.741c0-1.119-.13-1.355-.98-1.355h-4.797v10.611h-2.735V2zM55.27 2l3.43 5.313L62.085 2h3.32l-5.34 8.31v4.687H57.33v-4.689L51.953 2h3.318zM39 2h2.734v5.122h6.117V2h2.734v12.997h-2.734V9.693h-6.117v5.304H39V2zm67.092 2.807v7.035c0 2.239-1.217 3.155-2.734 3.155h-8.625V2h8.625c2.329 0 2.734 1.53 2.734 2.807zm-2.767.782c0-.711-.42-1.203-1.156-1.203h-4.701v8.121h4.701c1.072-.056 1.156-.72 1.156-1.247V5.59zm17.206-3.587V15h-2.733v-3.736h-6.238V15h-2.734V4.81c0-1.8.706-2.808 2.734-2.808h8.971zm-2.733 2.387h-5.135c-.862.053-1.103.273-1.103 1.355v2.98h6.238V4.39zM28.553 2.64c2.146 1.204 4.575 3.32 4.321 6.142-.293 2.615-2.672 4.441-4.797 5.54-6.203 3.04-14.917 3.135-21.323.478-2.165-.924-4.594-2.51-5.506-4.897-.697-1.96.153-4.005 1.58-5.364C5.812 1.758 9.617.803 13.534.253c4.25-.53 8.723-.062 12.529 1.276.85.322 1.69.675 2.489 1.11zm-3.501-.083c-2.54-.726-5.212-1.162-8.046-1.14-1.316.02-2.267 1.275-2.803 2.344-.405.85-.87 1.867-.527 2.843.183.321.476.54.8.622 1.386.311 2.641-.25 3.886-.56 2.449-.82 4.848-1.754 6.942-3.434.091-.114.253-.228.172-.405-.09-.156-.273-.187-.424-.27zm-13.207-.498c-.071-.134-.254-.114-.395-.114-1.356.218-2.642.602-3.876 1.08-2.085.902-4.585 2.23-5.202 4.72-.384 1.909.951 3.517 2.429 4.513.293.134.607.55.931.239 1.66-3.58 3.41-7.18 6.072-10.282l.04-.156zm17.66 2.74c-.365-.25-.689-.613-1.144-.654a.517.517 0 0 0-.223.155 57.107 57.107 0 0 1-1.579 3.31c-1.224 2.418-2.62 4.804-4.463 6.93l-.03.146c.02.125.152.104.233.114 1.295-.124 2.49-.54 3.674-.944 2.175-.872 4.907-2.241 5.535-4.814.385-1.743-.749-3.185-2.004-4.244zm-9.22 5.498c-.162-.436-.617-.757-1.073-.82-1.103-.145-2.146.166-3.127.456-2.63.904-5.293 1.764-7.53 3.622-.1.094-.171.227-.12.373a.48.48 0 0 0 .282.208 27.92 27.92 0 0 0 7.793 1.224c1.205.125 2.206-.705 2.813-1.67.547-1.038 1.205-2.106.962-3.393z" fill="#002C5E"/></svg>