<?xml version="1.0" encoding="UTF-8" standalone="no"?>
<svg width="150px" height="28px" viewBox="0 0 150 28" version="1.1" xmlns="http://www.w3.org/2000/svg" xmlns:xlink="http://www.w3.org/1999/xlink">
    <!-- Generator: Sketch 39.1 (31720) - http://www.bohemiancoding.com/sketch -->
    <title>Logo</title>
    <desc>Created with Sketch.</desc>
    <defs>
        <polygon id="path-1" points="0.0003 28 70.2273 28 70.2273 0.798 0.0003 0.798 0.0003 28"></polygon>
        <polygon id="path-3" points="0.1527 28 78.9997 28 78.9997 0.798 0.1527 0.798 0.1527 28"></polygon>
    </defs>
    <g id="Page-1" stroke="none" stroke-width="1" fill="none" fill-rule="evenodd">
        <g id="Logo" transform="translate(0.000000, -1.000000)">
            <g id="Group-3" transform="translate(0.000000, 0.202400)">
                <mask id="mask-2" fill="white">
                    <use xlink:href="#path-1"></use>
                </mask>
                <g id="Clip-2"></g>
                <path d="M54.4263,10.6472 C54.4263,10.4002 54.5943,10.2682 54.8053,10.2682 C55.1623,10.2682 55.7013,10.6472 56.0053,11.4052 C55.8963,11.4052 55.7323,11.4382 55.6223,11.4382 C54.9723,11.4382 54.4263,11.1292 54.4263,10.6472 L54.4263,10.6472 Z M15.1003,10.6472 C15.1003,10.4002 15.2613,10.2682 15.4813,10.2682 C15.8293,10.2682 16.3463,10.6472 16.6463,11.4052 C15.6423,11.4052 15.1003,11.1882 15.1003,10.6472 L15.1003,10.6472 Z M22.6853,6.7302 C22.6853,2.6752 23.4753,2.0522 23.7203,2.0522 C24.1563,2.0522 24.2083,2.3242 24.2083,3.8792 C24.2083,5.4772 23.5273,7.5682 22.6853,8.7162 L22.6853,6.7302 Z M50.2963,10.7282 C49.8283,11.3802 49.4493,12.3062 49.4493,13.4992 C49.4493,15.7842 50.7523,17.9652 53.2843,17.9652 C55.7323,17.9652 57.4473,16.0312 57.4473,13.3342 C57.4473,12.5512 57.4173,12.4432 57.3663,12.1182 C57.9353,11.8702 58.4263,11.4912 58.8083,11.1882 C59.1333,10.9432 59.3763,10.8062 59.5703,10.8062 C59.8143,10.8062 59.9213,10.9972 59.9213,11.3502 L59.9213,16.6862 C59.9213,17.5552 60.1963,17.9652 60.8733,17.9652 C61.4973,17.9652 61.9363,17.5272 62.1793,17.0112 C63.0793,15.1342 64.3823,12.6322 64.9513,11.6822 C65.0883,11.4642 65.1993,11.2972 65.2773,11.2972 C65.3863,11.2972 65.4423,11.3802 65.4423,11.7322 L65.4423,15.9802 C65.4423,17.1752 65.9883,17.9652 67.1803,17.9652 C68.4343,17.9652 69.0563,16.7642 70.1523,14.9152 C70.2043,14.8042 70.2273,14.7252 70.2273,14.6462 C70.2273,14.4012 70.0153,14.2622 69.7963,14.2622 C69.5493,14.2622 69.4133,14.5092 68.5993,15.4042 C68.4343,15.5742 68.2743,15.8102 67.9723,15.8102 C67.8643,15.8102 67.7813,15.6792 67.7813,15.5132 L67.7813,10.7512 C67.7813,9.4722 67.2093,8.9562 66.4753,8.9562 C65.8783,8.9562 65.3863,9.2012 64.8703,9.9632 C63.9453,11.3262 62.9933,13.2592 62.4783,14.2332 C62.4203,14.3472 62.3423,14.5092 62.2893,14.5092 C62.2323,14.5092 62.2083,14.4252 62.2083,14.2332 L62.2083,10.7512 C62.2083,9.7472 61.9363,8.9562 60.8733,8.9562 C59.7573,8.9562 59.1873,9.7192 58.3713,10.2892 C57.8543,10.6742 57.3933,10.9432 57.0413,11.1062 C56.4943,9.7192 55.4893,9.0162 54.6463,9.0372 C53.8003,9.0662 53.2023,9.5862 53.2023,10.4572 C53.2023,11.3502 53.7493,11.9722 54.4803,12.2492 C54.8863,12.4122 55.2683,12.4432 55.8153,12.4432 C55.9793,12.4432 56.1413,12.4432 56.2463,12.4122 C56.3043,12.6832 56.2783,13.0692 56.2783,13.3672 C56.2783,14.7022 55.4893,16.0312 54.0223,16.0312 C52.4953,16.0312 51.6013,14.5622 51.6013,12.8772 C51.6013,11.5972 51.9803,10.5382 52.6013,9.8062 C52.8523,9.5322 53.0393,9.3662 53.0393,9.1152 C53.0393,8.9882 52.8523,8.9562 52.6873,8.9562 C51.6513,8.9562 50.5123,9.4202 49.7253,9.8262 C48.6863,10.3712 47.4653,11.2722 46.4573,12.1692 C45.9683,11.0782 45.3703,10.1262 45.0693,9.3892 C44.9613,9.0902 44.8823,8.7432 44.6643,8.7432 C44.4713,8.7432 44.3873,8.9332 44.2543,9.3082 C43.7663,10.7512 41.1533,14.9712 40.5823,15.5422 C40.5283,15.6202 40.4493,15.7062 40.4233,15.7062 C40.3643,15.7062 40.3333,15.6792 40.3333,15.5132 L40.3333,10.7512 C40.3333,9.4722 39.8173,8.9562 39.1153,8.9562 C38.5143,8.9562 37.9993,9.2012 37.5103,9.9632 C36.6143,11.3262 35.5213,13.3122 35.0063,14.2892 C34.9233,14.4572 34.8413,14.5092 34.8133,14.5092 C34.7863,14.5092 34.7643,14.4012 34.7643,14.2332 L34.7643,10.7512 C34.7643,9.4722 34.2453,8.9562 33.5373,8.9562 C32.9373,8.9562 32.3693,9.1792 31.9043,9.9632 C30.7643,11.8972 28.8613,14.8622 28.5073,15.3482 C28.4523,15.4322 28.3973,15.4872 28.3433,15.5132 C28.2893,15.5132 28.2583,15.4602 28.2583,15.3252 L28.2583,10.7512 C28.2583,9.4722 27.7423,8.9562 27.0393,8.9562 C26.0583,8.9562 25.5173,9.8582 25.1603,10.4262 C24.6683,11.2152 24.0183,12.2782 23.5033,13.2592 C23.1483,13.9152 22.8473,14.5092 22.7373,14.5092 C22.6853,14.5092 22.6853,14.2622 22.6853,13.8012 L22.6853,10.1572 C24.3963,8.2492 25.4583,5.9122 25.4583,3.3552 C25.4583,1.8832 24.8083,1.0712 23.8043,1.0712 C21.9233,1.0712 20.4853,4.0102 20.4853,7.4892 L20.4853,10.3182 C19.6133,10.8632 18.7963,11.1292 17.7883,11.3262 C17.2733,9.8062 16.1833,9.0162 15.3163,9.0372 C14.4753,9.0662 13.8743,9.5862 13.8743,10.4572 C13.8743,11.8972 15.2893,12.4952 16.5373,12.4952 L16.8913,12.4952 C16.9443,12.7692 16.9443,13.0692 16.9443,13.3672 C16.9443,14.7022 16.1563,16.0312 14.6913,16.0312 C13.1693,16.0312 12.2693,14.5622 12.2693,12.8772 C12.2693,11.5972 12.6463,10.5382 13.2723,9.8062 C13.5193,9.5322 13.7113,9.2872 13.7113,9.1152 C13.7113,8.9882 13.5193,8.9562 13.3543,8.9562 C12.3213,8.9562 10.0393,10.3492 7.3173,13.0692 C7.0763,10.8922 6.8023,8.7682 6.8023,6.7002 C6.8023,4.3892 7.2593,2.4262 7.3683,1.8602 C7.4233,1.5092 7.4573,1.2882 7.4573,1.1282 C7.4573,0.9092 7.3413,0.7972 7.0483,0.7972 C4.8423,0.7972 0.0003,4.3082 0.0003,9.5582 C0.0003,13.2812 1.3633,15.0782 3.7253,17.3902 C2.2913,19.7032 1.1413,22.4492 1.1413,24.8982 C1.1413,26.6632 1.5533,28.0002 2.8553,28.0002 C5.5763,28.0002 7.6143,22.3452 7.6143,18.1532 C7.6143,16.9032 7.5643,15.6502 7.4573,14.4012 C8.4603,13.3342 10.0113,11.8972 10.3893,11.7612 C10.2273,12.3332 10.1183,12.9332 10.1183,13.4992 C10.1183,15.7842 11.4263,17.9652 13.9533,17.9652 C16.3233,17.9652 18.1153,16.0312 18.1153,13.3342 C18.1153,12.9862 18.0873,12.6832 18.0633,12.3582 C18.9293,12.1952 19.7263,11.9722 20.4853,11.5172 L20.4853,16.9842 C20.4853,17.6882 20.9713,17.9652 21.4343,17.9652 C22.0633,17.9652 22.3893,17.5272 22.8473,16.5262 C23.2323,15.7062 24.2623,13.8312 24.8873,12.7122 C25.3803,11.8392 25.6523,11.2722 25.8713,11.2722 C25.9223,11.2722 25.9803,11.4052 25.9803,11.7322 L25.9803,16.3852 C25.9803,17.6372 26.6333,17.9652 27.1983,17.9652 C27.7423,17.9652 28.0983,17.6662 28.4523,17.1752 C29.8683,15.1602 31.3663,12.7692 31.9603,11.7322 C32.0703,11.5462 32.2053,11.4052 32.3153,11.4052 C32.4213,11.4052 32.4763,11.4642 32.4763,11.8132 L32.4763,16.6862 C32.4763,17.5552 32.7483,17.9652 33.4313,17.9652 C34.0533,17.9652 34.4603,17.5272 34.7033,17.0112 C35.6073,15.1342 36.9363,12.6572 37.5103,11.6822 C37.6433,11.4642 37.7803,11.2722 37.8613,11.2722 C37.9743,11.2722 37.9993,11.4052 37.9993,11.7612 L37.9993,16.3852 C37.9993,17.6372 38.6523,17.9652 39.2273,17.9652 C39.9823,17.9652 40.4773,17.4182 40.9663,16.7952 C41.8583,15.6202 43.1653,13.5342 43.9553,12.1952 C44.2293,12.6322 44.5253,13.1502 44.7743,13.7202 C44.1203,14.5092 43.4663,15.4042 43.4663,16.3552 C43.4663,17.3632 44.1733,17.9652 44.9083,17.9652 C46.1573,17.9652 47.2983,16.7642 47.2983,15.1082 C47.2983,14.4572 47.1113,13.7752 46.8683,13.1242 C47.9773,12.0332 49.3123,10.9722 50.2963,10.7282 L50.2963,10.7282 Z M5.4923,16.6582 C5.7123,18.0982 5.9033,19.5162 5.9033,20.6292 C5.9033,23.2362 5.0353,26.2842 3.5383,26.2592 C2.9603,26.2592 2.4743,25.6812 2.4503,24.6802 C2.3953,21.4192 3.9453,18.6432 5.4923,16.6582 L5.4923,16.6582 Z M45.2053,14.8042 C45.3703,15.2722 45.4533,15.6502 45.4533,16.0312 C45.4533,16.4672 45.2893,16.9032 44.9883,16.9032 C44.7743,16.9032 44.5563,16.6582 44.5563,16.2762 C44.5563,15.8672 44.9083,15.2142 45.2053,14.8042 L45.2053,14.8042 Z M6.4743,1.8312 C6.4743,1.9972 6.0933,2.7562 5.6053,4.1182 C5.0883,5.5302 4.5953,7.5412 4.5953,9.9632 C4.5953,11.4052 4.9523,13.3122 5.2533,15.2422 L4.3823,16.4162 C2.9933,14.7252 2.1243,12.8242 2.1243,9.5582 C2.1243,4.9352 4.9253,1.7282 6.3643,1.7282 C6.4503,1.7282 6.4743,1.7522 6.4743,1.8312 L6.4743,1.8312 Z" id="Fill-1" fill="#D51900" mask="url(#mask-2)"></path>
            </g>
            <g id="Group-6" transform="translate(71.000000, 0.202400)">
                <mask id="mask-4" fill="white">
                    <use xlink:href="#path-3"></use>
                </mask>
                <g id="Clip-5"></g>
                <path d="M63.2007,10.6472 C63.2007,10.4002 63.3597,10.2682 63.5797,10.2682 C63.9307,10.2682 64.4757,10.6472 64.7737,11.4052 C64.6677,11.4052 64.5047,11.4382 64.3907,11.4382 C63.7437,11.4382 63.2007,11.1292 63.2007,10.6472 L63.2007,10.6472 Z M23.8667,10.6472 C23.8667,10.4002 24.0327,10.2682 24.2477,10.2682 C24.6017,10.2682 25.1237,10.6472 25.4167,11.4052 C24.4107,11.4052 23.8667,11.1882 23.8667,10.6472 L23.8667,10.6472 Z M31.4567,6.7302 C31.4567,2.6752 32.2417,2.0522 32.4897,2.0522 C32.9237,2.0522 32.9787,2.3242 32.9787,3.8792 C32.9787,5.4772 32.2967,7.5682 31.4567,8.7162 L31.4567,6.7302 Z M14.2687,16.6582 C14.4797,18.0982 14.6777,19.5162 14.6777,20.6292 C14.6777,23.2362 13.8087,26.2842 12.3087,26.2592 C11.7387,26.2592 11.2487,25.6812 11.2217,24.6802 C11.1657,21.4192 12.7187,18.6432 14.2687,16.6582 L14.2687,16.6582 Z M53.9807,14.8042 C54.1457,15.2722 54.2237,15.6502 54.2237,16.0312 C54.2237,16.4672 54.0607,16.9032 53.7617,16.9032 C53.5467,16.9032 53.3227,16.6582 53.3227,16.2762 C53.3227,15.8672 53.6797,15.2142 53.9807,14.8042 L53.9807,14.8042 Z M15.2427,1.8312 C15.2427,1.9972 14.8657,2.7562 14.3727,4.1182 C13.8597,5.5302 13.3667,7.5412 13.3667,9.9632 C13.3667,11.4052 13.7297,13.3122 14.0267,15.2422 L13.1537,16.4162 C11.7687,14.7252 10.8937,12.8242 10.8937,9.5582 C10.8937,4.9352 13.7007,1.7282 15.1397,1.7282 C15.2187,1.7282 15.2427,1.7522 15.2427,1.8312 L15.2427,1.8312 Z M10.7077,15.4322 C11.1937,16.0852 11.7937,16.7102 12.5007,17.3902 C11.0577,19.7032 9.9167,22.4492 9.9167,24.8982 C9.9167,26.6632 10.3277,28.0002 11.6337,28.0002 C14.3507,28.0002 16.3887,22.3452 16.3887,18.1532 C16.3887,16.9032 16.3357,15.6502 16.2267,14.4012 C17.2347,13.3342 18.7797,11.8972 19.1657,11.7612 C19.0017,12.3332 18.8887,12.9332 18.8887,13.4992 C18.8887,15.7842 20.1957,17.9652 22.7277,17.9652 C25.0917,17.9652 26.8867,16.0312 26.8867,13.3342 C26.8867,12.9862 26.8617,12.6832 26.8317,12.3582 C27.7037,12.1952 28.4977,11.9722 29.2547,11.5172 L29.2547,16.9842 C29.2547,17.6882 29.7417,17.9652 30.2007,17.9652 C30.8347,17.9652 31.1607,17.5272 31.6207,16.5262 C31.9997,15.7062 33.0357,13.8312 33.6627,12.7122 C34.1507,11.8392 34.4227,11.2722 34.6457,11.2722 C34.6967,11.2722 34.7477,11.4052 34.7477,11.7322 L34.7477,16.3852 C34.7477,17.6372 35.3987,17.9652 35.9707,17.9652 C36.5167,17.9652 36.8667,17.6662 37.2277,17.1752 C38.6377,15.1602 40.1357,12.7692 40.7327,11.7322 C40.8417,11.5462 40.9797,11.4052 41.0847,11.4052 C41.1907,11.4052 41.2507,11.4642 41.2507,11.8132 L41.2507,16.6862 C41.2507,17.5552 41.5197,17.9652 42.1987,17.9652 C42.8247,17.9652 43.2327,17.5272 43.4797,17.0112 C44.3777,15.1342 45.7097,12.6572 46.2787,11.6822 C46.4177,11.4642 46.5527,11.2722 46.6377,11.2722 C46.7437,11.2722 46.7737,11.4052 46.7737,11.7612 L46.7737,16.3852 C46.7737,17.6372 47.4207,17.9652 47.9907,17.9652 C48.7577,17.9652 49.2477,17.4182 49.7337,16.7952 C50.6307,15.6202 51.9397,13.5342 52.7277,12.1952 C52.9967,12.6322 53.2997,13.1502 53.5467,13.7202 C52.8867,14.5092 52.2407,15.4042 52.2407,16.3552 C52.2407,17.3632 52.9397,17.9652 53.6797,17.9652 C54.9287,17.9652 56.0697,16.7642 56.0697,15.1082 C56.0697,14.4572 55.8807,13.7752 55.6357,13.1242 C56.7497,12.0332 58.0837,10.9722 59.0627,10.7282 C58.6007,11.3802 58.2197,12.3062 58.2197,13.4992 C58.2197,15.7842 59.5267,17.9652 62.0567,17.9652 C64.5047,17.9652 66.2137,16.0312 66.2137,13.3342 C66.2137,12.5512 66.1887,12.4432 66.1377,12.1182 C66.7027,11.8702 67.1957,11.4912 67.5807,11.1882 C67.8997,10.9432 68.1497,10.8062 68.3367,10.8062 C68.5827,10.8062 68.6977,10.9972 68.6977,11.3502 L68.6977,16.6862 C68.6977,17.5552 68.9657,17.9652 69.6457,17.9652 C70.2687,17.9652 70.7067,17.5272 70.9527,17.0112 C71.8447,15.1342 73.1527,12.6322 73.7217,11.6822 C73.8577,11.4642 73.9687,11.2972 74.0507,11.2972 C74.1617,11.2972 74.2147,11.3802 74.2147,11.7322 L74.2147,15.9802 C74.2147,17.1752 74.7537,17.9652 75.9537,17.9652 C77.2087,17.9652 77.8327,16.7642 78.9227,14.9152 C78.9737,14.8042 78.9997,14.7252 78.9997,14.6462 C78.9997,14.4012 78.7817,14.2622 78.5657,14.2622 C78.3227,14.2622 78.1837,14.5092 77.3697,15.4042 C77.2087,15.5742 77.0427,15.8102 76.7447,15.8102 C76.6327,15.8102 76.5557,15.6792 76.5557,15.5132 L76.5557,10.7512 C76.5557,9.4722 75.9777,8.9562 75.2437,8.9562 C74.6487,8.9562 74.1617,9.2012 73.6427,9.9632 C72.7157,11.3262 71.7667,13.2592 71.2537,14.2332 C71.1947,14.3472 71.1157,14.5092 71.0577,14.5092 C70.9997,14.5092 70.9787,14.4252 70.9787,14.2332 L70.9787,10.7512 C70.9787,9.7472 70.7067,8.9562 69.6457,8.9562 C68.5277,8.9562 67.9597,9.7192 67.1447,10.2892 C66.6227,10.6742 66.1637,10.9432 65.8067,11.1062 C65.2677,9.7192 64.2577,9.0162 63.4187,9.0372 C62.5707,9.0662 61.9777,9.5862 61.9777,10.4572 C61.9777,11.3502 62.5217,11.9722 63.2497,12.2492 C63.6587,12.4122 64.0397,12.4432 64.5907,12.4432 C64.7497,12.4432 64.9077,12.4432 65.0237,12.4122 C65.0767,12.6832 65.0487,13.0692 65.0487,13.3672 C65.0487,14.7022 64.2577,16.0312 62.7877,16.0312 C61.2657,16.0312 60.3717,14.5622 60.3717,12.8772 C60.3717,11.5972 60.7497,10.5382 61.3727,9.8062 C61.6207,9.5322 61.8127,9.3662 61.8127,9.1152 C61.8127,8.9882 61.6207,8.9562 61.4577,8.9562 C60.4287,8.9562 59.2827,9.4202 58.4937,9.8262 C57.4587,10.3712 56.2347,11.2722 55.2317,12.1692 C54.7407,11.0782 54.1457,10.1262 53.8427,9.3892 C53.7307,9.0902 53.6567,8.7432 53.4307,8.7432 C53.2427,8.7432 53.1597,8.9332 53.0257,9.3082 C52.5347,10.7512 49.9257,14.9712 49.3547,15.5422 C49.2997,15.6202 49.2187,15.7062 49.1897,15.7062 C49.1387,15.7062 49.1087,15.6792 49.1087,15.5132 L49.1087,10.7512 C49.1087,9.4722 48.5957,8.9562 47.8817,8.9562 C47.2827,8.9562 46.7737,9.2012 46.2787,9.9632 C45.3797,11.3262 44.2947,13.3122 43.7777,14.2892 C43.6977,14.4572 43.6177,14.5092 43.5917,14.5092 C43.5607,14.5092 43.5327,14.4012 43.5327,14.2332 L43.5327,10.7512 C43.5327,9.4722 43.0197,8.9562 42.3117,8.9562 C41.7117,8.9562 41.1367,9.1792 40.6787,9.9632 C39.5327,11.8972 37.6317,14.8622 37.2757,15.3482 C37.2277,15.4322 37.1697,15.4872 37.1117,15.5132 C37.0637,15.5132 37.0317,15.4602 37.0317,15.3252 L37.0317,10.7512 C37.0317,9.4722 36.5167,8.9562 35.8067,8.9562 C34.8247,8.9562 34.2847,9.8582 33.9287,10.4262 C33.4397,11.2152 32.7907,12.2782 32.2717,13.2592 C31.9207,13.9152 31.6207,14.5092 31.5117,14.5092 C31.4567,14.5092 31.4567,14.2622 31.4567,13.8012 L31.4567,10.1572 C33.1727,8.2492 34.2297,5.9122 34.2297,3.3552 C34.2297,1.8832 33.5787,1.0712 32.5687,1.0712 C30.6947,1.0712 29.2547,4.0102 29.2547,7.4892 L29.2547,10.3182 C28.3817,10.8632 27.5657,11.1292 26.5577,11.3262 C26.0447,9.8062 24.9557,9.0162 24.0907,9.0372 C23.2417,9.0662 22.6457,9.5862 22.6457,10.4572 C22.6457,11.8972 24.0557,12.4952 25.3097,12.4952 L25.6657,12.4952 C25.7157,12.7692 25.7157,13.0692 25.7157,13.3672 C25.7157,14.7022 24.9297,16.0312 23.4597,16.0312 C21.9357,16.0312 21.0427,14.5622 21.0427,12.8772 C21.0427,11.5972 21.4227,10.5382 22.0437,9.8062 C22.2877,9.5322 22.4797,9.2872 22.4797,9.1152 C22.4797,8.9882 22.2877,8.9562 22.1267,8.9562 C21.0917,8.9562 18.8087,10.3492 16.0857,13.0692 C15.8467,10.8922 15.5717,8.7682 15.5717,6.7002 C15.5717,4.3892 16.0337,2.4262 16.1427,1.8602 C16.1967,1.5092 16.2267,1.2882 16.2267,1.1282 C16.2267,0.9092 16.1157,0.7972 15.8217,0.7972 C13.6177,0.7972 8.7757,4.3082 8.7757,9.5582 C8.7757,11.7042 9.2377,13.2312 10.0537,14.5622 C9.7497,14.5092 9.5107,14.5092 9.2877,14.5092 C8.4207,14.5092 7.6017,14.7252 7.0937,14.8362 L7.0937,14.2892 C7.0937,13.1242 6.8177,11.5172 6.3267,10.9722 C6.2687,10.9162 6.1877,10.8922 6.1117,10.8922 C5.8877,10.8922 5.6197,10.9972 5.3217,11.1622 C4.9917,11.3262 4.6657,11.4912 4.6657,11.5972 C4.6657,11.6492 4.6657,11.7042 4.7477,11.8392 C4.9397,12.1182 5.4577,12.6572 5.6447,13.9392 C4.7177,13.0132 3.6617,12.6022 2.2797,12.6022 C0.6447,12.6022 0.1527,13.3342 0.1527,14.0732 C0.1527,15.4872 2.0297,16.1942 4.3997,16.1942 C4.8337,16.1942 5.3217,16.1122 5.8087,16.0012 C5.8087,16.4372 5.8637,16.8232 5.8637,17.1472 C5.8637,17.6102 5.9427,17.9652 6.2457,17.9652 C6.7067,17.9652 6.9807,17.0362 7.0327,15.7062 C7.8757,15.4872 8.7477,15.2992 9.4847,15.2992 C9.8367,15.2992 10.2767,15.3482 10.7077,15.4322 L10.7077,15.4322 Z M5.3497,15.1602 C4.8917,15.2142 4.6127,15.2142 4.1277,15.2142 C3.0637,15.2142 2.2797,14.8042 2.2797,14.2112 C2.2797,13.8312 2.4677,13.6102 3.0117,13.6102 C3.8837,13.6102 4.5867,14.2112 5.3497,15.1602 L5.3497,15.1602 Z" id="Fill-4" fill="#D51900" mask="url(#mask-4)"></path>
            </g>
        </g>
    </g>
</svg>