<?xml version="1.0" encoding="utf-8"?>
<!-- Generator: Adobe Illustrator 25.2.0, SVG Export Plug-In . SVG Version: 6.00 Build 0)  -->
<svg version="1.1" id="Layer_2_1_" xmlns="http://www.w3.org/2000/svg" xmlns:xlink="http://www.w3.org/1999/xlink" x="0px" y="0px"
	 viewBox="0 0 602.3 152.5" style="enable-background:new 0 0 602.3 152.5;" xml:space="preserve">
<style type="text/css">
	.st0{fill:#001D3F;}
	.st1{fill:#BFD7EA;}
	.st2{fill:#F45B66;}
</style>
<path class="st0" d="M6.3,68.6c-3,0-5.5-2.5-5.5-5.5V23.2c0-12.3,10-22.3,22.3-22.3H63c3,0,5.5,2.5,5.5,5.5S66,11.9,63,11.9l0,0
	H23.1c-6.2,0-11.3,5.1-11.3,11.3v39.9C11.8,66.1,9.3,68.6,6.3,68.6z"/>
<path class="st1" d="M579.2,151.6h-39.9c-3,0-5.5-2.5-5.5-5.5s2.5-5.5,5.5-5.5h39.9c6.2,0,11.3-5.1,11.3-11.3V89.4
	c0-3,2.5-5.5,5.5-5.5s5.5,2.5,5.5,5.5v39.9C601.5,141.6,591.5,151.6,579.2,151.6z"/>
<path class="st2" d="M94.1,113.5l-17-23.9c-2,0.2-3.9,0.3-5.9,0.3H51.2v23.5h-7.8V39.3h27.8c18.9,0,30.3,9.5,30.3,25.4
	c0,11.7-6.1,19.8-17,23.3l18.1,25.4H94.1z M93.6,64.7C93.6,52.8,85.8,46,71,46H51.2v37.2H71C85.8,83.2,93.6,76.4,93.6,64.7
	L93.6,64.7z"/>
<path class="st2" d="M172.5,106.7v6.8H120V39.3h50.9V46h-43v26.4h38.4v6.7h-38.4v27.6L172.5,106.7z"/>
<path class="st2" d="M244.5,106.7v6.8h-60.9v-5.4l49.2-62h-48.5v-6.8h58.8v5.4l-49.1,62L244.5,106.7z"/>
<path class="st2" d="M260,39.3h7.8v74.2H260V39.3z"/>
<path class="st2" d="M285.6,39.3h7.9v67.4H335v6.8h-49.4V39.3z"/>
<path class="st2" d="M348,39.3h7.9v74.2H348V39.3z"/>
<path class="st2" d="M426.2,106.7v6.8h-52.5V39.3h50.9V46h-43v26.4h38.3v6.7h-38.4v27.6L426.2,106.7z"/>
<path class="st2" d="M506.6,39.3v74.2h-6.5l-47.7-60.2v60.2h-7.8V39.3h6.5l47.8,60.2V39.3H506.6z"/>
<path class="st2" d="M545.2,46h-26.1v-6.7h60V46H553v67.4h-7.8L545.2,46z"/>
</svg>
