<svg width="211" height="46" viewBox="0 0 211 46" fill="none" xmlns="http://www.w3.org/2000/svg">
<path d="M13.4971 33.3792H19.3383C19.3383 35.0393 20.292 36.1065 21.8417 36.1065C23.0934 36.1065 23.8087 35.5136 23.8087 34.5057C23.8087 33.6164 23.2722 33.1421 21.9609 32.6678L18.0866 31.2449C15.2852 30.237 13.9143 28.3397 13.9143 25.731C13.9143 22.1144 16.8349 19.6836 21.6033 19.6836C26.3716 19.6836 29.4711 22.0551 29.4711 25.9089H23.6298C23.6298 24.486 22.855 23.5966 21.5437 23.5966C20.4708 23.5966 19.7555 24.1302 19.7555 25.0788C19.7555 25.8496 20.292 26.3832 21.9013 26.9761L25.4776 28.3397C28.3982 29.4662 29.6499 31.3634 29.6499 33.9721C29.6499 37.9445 26.6101 40.3753 21.7821 40.3753C16.5965 40.316 13.4971 37.7073 13.4971 33.3792Z" fill="#EA6224"/>
<path d="M31.7361 25.9089H37.2197V39.7232H31.7361V25.9089Z" fill="#EA6224"/>
<path d="M40.3787 25.9089H45.8623V27.9247C46.4583 26.4425 47.8888 25.4939 49.975 25.4939C52.3592 25.4939 53.6705 26.5018 54.3261 28.1026C55.101 26.5018 56.7699 25.4939 58.9157 25.4939C62.79 25.4939 63.8032 28.1026 63.8032 31.2449V39.7231H58.2004V32.2528C58.2004 30.652 57.664 30.0591 56.5911 30.0591C55.5182 30.0591 54.803 30.7706 54.803 32.7864V39.7231H49.2001V32.2528C49.2001 30.652 48.6637 30.0591 47.6504 30.0591C46.4583 30.0591 45.8623 30.7706 45.8623 32.7864V39.7231H40.3787V25.9089Z" fill="#EA6224"/>
<path d="M82.9958 32.8456C82.9958 37.1737 80.3732 40.1381 76.6778 40.1381C74.4724 40.1381 72.9227 38.9523 72.3266 37.7073V45.0591H66.843V25.9089H72.3266V27.984C72.9227 26.6203 74.5916 25.5531 76.797 25.5531C80.4328 25.4938 82.9958 28.399 82.9958 32.8456ZM77.3334 32.8456C77.3334 31.1263 76.2605 29.9405 74.7108 29.9405C73.1611 29.9405 72.0882 31.1263 72.0882 32.8456C72.0882 34.565 73.1611 35.8101 74.7108 35.8101C76.2009 35.7508 77.3334 34.565 77.3334 32.8456Z" fill="#EA6224"/>
<path d="M85.2014 20.2173H90.685V39.7232H85.2014V20.2173Z" fill="#EA6224"/>
<path d="M92.7114 32.8457C92.7114 28.2212 95.9301 25.4939 100.758 25.4939C105.407 25.4939 108.626 28.1619 108.626 32.0749C108.626 32.905 108.626 33.32 108.507 34.0907H98.2546C98.3142 35.5137 99.3275 36.3437 100.937 36.3437C102.069 36.3437 102.844 36.1065 103.142 35.3951H108.447C107.97 38.3002 104.99 40.0789 100.937 40.0789C95.8109 40.1382 92.7114 37.5295 92.7114 32.8457ZM103.083 31.1263C103.083 29.6441 102.189 28.8141 100.698 28.8141C99.2083 28.8141 98.2546 29.7627 98.195 31.1263H103.083Z" fill="#EA6224"/>
<path d="M117.388 20.2173H123.229V27.6284H128.713V20.2173H134.554V39.7232H128.713V32.4307H123.229V39.7232H117.388V20.2173Z" fill="#EA6224"/>
<path d="M136.64 32.7864C136.64 28.399 139.799 25.4939 144.746 25.4939C149.694 25.4939 152.853 28.399 152.853 32.7864C152.853 37.1737 149.694 40.1382 144.746 40.1382C139.799 40.1382 136.64 37.1737 136.64 32.7864ZM147.369 32.7864C147.369 31.067 146.415 29.9998 144.746 29.9998C143.137 29.9998 142.124 31.1263 142.124 32.7864C142.124 34.5058 143.137 35.5729 144.746 35.5729C146.356 35.6322 147.369 34.5058 147.369 32.7864Z" fill="#EA6224"/>
<path d="M154.879 25.9089H160.363V27.9247C160.959 26.4425 162.389 25.4939 164.475 25.4939C166.859 25.4939 168.171 26.5018 168.826 28.1026C169.601 26.5018 171.27 25.4939 173.416 25.4939C177.29 25.4939 178.303 28.1026 178.303 31.2449V39.7231H172.701V32.2528C172.701 30.652 172.164 30.0591 171.091 30.0591C170.018 30.0591 169.303 30.7706 169.303 32.7864V39.7231H163.7V32.2528C163.7 30.652 163.164 30.0591 162.151 30.0591C160.959 30.0591 160.363 30.7706 160.363 32.7864V39.7231H154.879V25.9089Z" fill="#EA6224"/>
<path d="M180.151 32.8457C180.151 28.2212 183.37 25.4939 188.198 25.4939C192.847 25.4939 196.066 28.1619 196.066 32.0749C196.066 32.905 196.066 33.32 195.947 34.0907H185.695C185.754 35.5137 186.767 36.3437 188.377 36.3437C189.509 36.3437 190.284 36.1065 190.582 35.3951H195.887C195.41 38.3002 192.43 40.0789 188.377 40.0789C183.31 40.1382 180.151 37.5295 180.151 32.8457ZM190.582 31.1263C190.582 29.6441 189.688 28.8141 188.198 28.8141C186.708 28.8141 185.754 29.7627 185.695 31.1263H190.582Z" fill="#EA6224"/>
<path d="M197.079 35.6323H202.563C202.563 36.403 203.218 36.8773 204.291 36.8773C205.006 36.8773 205.543 36.5809 205.543 35.9287C205.543 35.4544 205.245 35.158 204.351 34.9801L201.311 34.3279C198.808 33.7943 197.318 32.3121 197.318 30.1184C197.318 27.2133 199.821 25.5532 203.814 25.5532C208.285 25.5532 210.729 26.9761 210.729 29.7627H205.305C205.305 28.9327 204.768 28.6362 203.814 28.6362C203.04 28.6362 202.622 28.9327 202.622 29.4663C202.622 29.9406 203.04 30.2963 203.993 30.5335L207.093 31.3042C209.536 31.9564 210.967 33.1422 210.967 35.3951C210.967 38.4781 208.285 40.1975 204.232 40.1975C199.761 40.1382 197.079 38.3595 197.079 35.6323Z" fill="#EA6224"/>
<path d="M18.5635 0L0.0264909 15.83C0.0264909 15.83 -0.0331136 40.4348 0.0264909 40.4348H5.62932C5.56971 36.6996 5.62932 18.1423 5.62932 18.1423L18.6827 7.05534L31.7361 17.9644V22.2925H37.2197V15.5929L18.5635 0Z" fill="#EA6224"/>
</svg>
