<?xml version="1.0" encoding="UTF-8"?>
<svg width="12px" height="16px" viewBox="0 0 12 16" version="1.1" xmlns="http://www.w3.org/2000/svg" xmlns:xlink="http://www.w3.org/1999/xlink">
    <!-- Generator: Sketch 54.1 (76490) - https://sketchapp.com -->
    <title>address</title>
    <desc>Created with Sketch.</desc>
    <g id="1.-Desktop" stroke="none" stroke-width="1" fill="none" fill-rule="evenodd">
        <g id="05-PickNik--Contact" transform="translate(-375.000000, -720.000000)" fill="#121929" fill-rule="nonzero">
            <path d="M381,727.863281 C381.539065,727.863281 381.984373,727.687502 382.335938,727.335938 C382.687502,726.984373 382.863281,726.539065 382.863281,726 C382.863281,725.460935 382.687502,725.015627 382.335938,724.664062 C381.984373,724.312498 381.539065,724.136719 381,724.136719 C380.460935,724.136719 380.015627,724.312498 379.664062,724.664062 C379.312498,725.015627 379.136719,725.460935 379.136719,726 C379.136719,726.539065 379.312498,726.984373 379.664062,727.335938 C380.015627,727.687502 380.460935,727.863281 381,727.863281 Z M381,720.761719 C382.500007,720.785156 383.742183,721.289058 384.726562,722.273438 C385.710942,723.257817 386.214844,724.499992 386.238281,726 C386.027343,728.132823 385.154305,730.248036 383.619141,732.345703 C382.083977,734.44337 381.210939,735.574218 381,735.738281 C380.789061,735.574218 379.916023,734.44337 378.380859,732.345703 C376.845695,730.248036 375.972657,728.132823 375.761719,726 C375.785156,724.499992 376.289058,723.257817 377.273438,722.273438 C378.257817,721.289058 379.499993,720.785156 381,720.761719 Z" id="address"></path>
        </g>
    </g>
</svg>