<?xml version="1.0" encoding="UTF-8"?>
<svg width="166px" height="167px" viewBox="0 0 166 167" version="1.1" xmlns="http://www.w3.org/2000/svg" xmlns:xlink="http://www.w3.org/1999/xlink">
    <!-- Generator: Sketch 54.1 (76490) - https://sketchapp.com -->
    <title>Group 3</title>
    <desc>Created with Sketch.</desc>
    <g stroke="none" stroke-width="1" fill="none" fill-rule="evenodd">
        <g id="04-PickNik--Support" transform="translate(-541.000000, -1764.000000)">
            <g id="Group-7" transform="translate(380.000000, 1677.000000)">
                <g transform="translate(161.000000, 87.000000)">
                    <g id="Group-4">
                        <path d="M83,167 C128.839634,167 166,128.90164 166,83.0399449 C166,37.1782497 128.839634,0 83,0 C37.1603658,0 0,37.1782497 0,83.0399449 C0,128.90164 37.1603658,167 83,167 Z" id="Oval-Copy-2" fill-opacity="0.078407" fill="#3C4A69"></path>
                        <path d="M83,157 C123.316787,157 156,123.464318 156,83.0950413 C156,42.7257647 123.316787,10 83,10 C42.6832133,10 10,42.7257647 10,83.0950413 C10,123.464318 42.6832133,157 83,157 Z" id="Oval-Copy-3" fill="#FFFFFF"></path>
                        <path d="M83.0000003,59 L61.6770833,67.7845394 L83.0000003,76.5490549 L104.322917,67.7845394 L83.0000003,59 Z M60,69.8503422 L60,99.5934739 L81.7222226,108.538462 L81.7222226,78.8955779 L81.7222226,78.7953299 L60,69.8503422 L60,69.8503422 Z M106,69.8503422 L84.2777781,78.7953299 L84.2777781,78.8955779 L84.2777781,108.538462 L106,99.5934739 L106,69.8503422 L106,69.8503422 Z" id="Shape-Copy" fill="#2B3751" fill-rule="nonzero" opacity="0.601678757"></path>
                    </g>
                </g>
            </g>
        </g>
    </g>
</svg>
