<?xml version="1.0" encoding="UTF-8"?>
<svg width="193px" height="189px" viewBox="0 0 193 189" version="1.1" xmlns="http://www.w3.org/2000/svg" xmlns:xlink="http://www.w3.org/1999/xlink">
    <!-- Generator: Sketch 54.1 (76490) - https://sketchapp.com -->
    <title>Group 4</title>
    <desc>Created with Sketch.</desc>
    <defs>
        <path d="M100,17.1315464 C100,7.67002831 107.669611,-2.13162821e-14 117.131976,-2.13162821e-14 C126.592979,-2.13162821e-14 134.26259,7.67002831 134.26259,17.1315464 C134.26259,26.5930644 126.592979,34.2644551 117.131976,34.2644551 C107.669611,34.2644551 100,26.5930644 100,17.1315464" id="path-1"></path>
        <filter x="-284.6%" y="-267.0%" width="669.1%" height="669.1%" filterUnits="objectBoundingBox" id="filter-2">
            <feOffset dx="0" dy="6" in="SourceAlpha" result="shadowOffsetOuter1"></feOffset>
            <feGaussianBlur stdDeviation="31.5" in="shadowOffsetOuter1" result="shadowBlurOuter1"></feGaussianBlur>
            <feColorMatrix values="0 0 0 0 0.0754548834   0 0 0 0 0.096736573   0 0 0 0 0.145380435  0 0 0 0.12 0" type="matrix" in="shadowBlurOuter1"></feColorMatrix>
        </filter>
        <polygon id="path-3" points="18 41.0004496 107.650245 41.0004496 107.650245 108.613243 18 108.613243"></polygon>
    </defs>
    <g id="1.-Desktop" stroke="none" stroke-width="1" fill="none" fill-rule="evenodd">
        <g id="01-PickNik-Services-v1-Copy" transform="translate(-740.000000, -540.000000)">
            <g id="Group-4" transform="translate(740.000000, 593.000000)">
                <rect id="Rectangle-Copy-5" stroke="#ECEFF6" stroke-width="3" x="1.5" y="17.5" width="117" height="117" rx="16"></rect>
                <g id="Fill-7">
                    <use fill="black" fill-opacity="1" filter="url(#filter-2)" xlink:href="#path-1"></use>
                    <use fill="#3C4A69" fill-rule="evenodd" xlink:href="#path-1"></use>
                </g>
                <path d="M116.261719,12.1367188 L112.113281,16.25 L116.261719,20.3632812 L116.261719,18.2539062 L114.257812,16.25 L116.261719,14.2460938 L116.261719,12.1367188 Z M117.738281,12.0664062 L117.738281,14.2109375 L119.8125,16.25 L117.738281,18.2890625 L117.738281,20.4335938 L121.921875,16.25 L117.738281,12.0664062 Z M111.761719,9.5 L122.238281,9.5 C122.660158,9.5 123.017577,9.64648291 123.310547,9.93945312 C123.603517,10.2324233 123.75,10.5898416 123.75,11.0117188 L123.75,21.4882812 C123.75,21.9101584 123.603517,22.2675767 123.310547,22.5605469 C123.017577,22.8535171 122.660158,23 122.238281,23 L111.761719,23 C111.339842,23 110.982423,22.8535171 110.689453,22.5605469 C110.396483,22.2675767 110.25,21.9101584 110.25,21.4882812 L110.25,11.0117188 C110.25,10.5898416 110.390624,10.2324233 110.671875,9.93945312 C110.953126,9.64648291 111.316404,9.5 111.761719,9.5 Z" id="" fill="#FFFFFF" fill-rule="nonzero"></path>
                <mask id="mask-4" fill="white">
                    <use xlink:href="#path-3"></use>
                </mask>
                <g id="Clip-2"></g>
                <path d="M62.0916,68.9979041 L51.1565256,68.9979041 C50.6130876,68.9979041 50.1730545,69.4379372 50.1730545,69.9813752 C50.1730545,70.5248132 50.6130876,70.9648463 51.1565256,70.9648463 L62.0916,70.9648463 C62.635038,70.9648463 63.0750711,70.5248132 63.0750711,69.9813752 C63.0750711,69.4379372 62.635038,68.9979041 62.0916,68.9979041 L62.0916,68.9979041 Z M68.9174512,55.9700033 C68.9174512,55.4271273 68.4774182,54.9865322 67.9339802,54.9865322 L51.1565256,54.9865322 C50.6130876,54.9865322 50.1730545,55.4271273 50.1730545,55.9700033 C50.1730545,56.5134413 50.6130876,56.9534744 51.1565256,56.9534744 L67.9339802,56.9534744 C68.4774182,56.9534744 68.9174512,56.5134413 68.9174512,55.9700033 L68.9174512,55.9700033 Z M62.0916,62.1557554 L51.1565256,62.1557554 C50.6130876,62.1557554 50.1730545,62.5957884 50.1730545,63.1392264 C50.1730545,63.6826645 50.6130876,64.1226975 51.1565256,64.1226975 L62.0916,64.1226975 C62.635038,64.1226975 63.0750711,63.6826645 63.0750711,63.1392264 C63.0750711,62.5957884 62.635038,62.1557554 62.0916,62.1557554 L62.0916,62.1557554 Z M37.7768231,70.4708628 C37.3778149,70.4708628 37.0535504,70.1465983 37.0535504,69.7470281 C37.0535504,69.3463339 37.3778149,69.0209455 37.7768231,69.0209455 C38.1775174,69.0209455 38.5034678,69.3463339 38.5034678,69.7470281 C38.5034678,70.1465983 38.1775174,70.4708628 37.7768231,70.4708628 L37.7768231,70.4708628 Z M37.7768231,66.9247471 C36.2223769,66.9247471 34.9573521,68.1903339 34.9573521,69.7470281 C34.9573521,71.3020364 36.2223769,72.5670612 37.7768231,72.5670612 C39.3335174,72.5670612 40.6002281,71.3020364 40.6002281,69.7470281 C40.6002281,68.1903339 39.3335174,66.9247471 37.7768231,66.9247471 L37.7768231,66.9247471 Z M102.68198,85.6573421 L99.152724,89.1854744 L96.4394678,86.4812099 L95.6054843,86.9791273 C94.3949719,87.7063339 93.0917322,88.2435901 91.7351041,88.5802182 L90.788162,88.8145653 L90.788162,92.6506645 L85.791005,92.6506645 L85.791005,88.8145653 L84.8401289,88.5802182 C83.4874347,88.2435901 82.184757,87.7063339 80.9691868,86.9791273 L80.1346413,86.4812099 L77.426443,89.1854744 L73.8983107,85.6573421 L76.6014512,82.943524 L76.099038,82.1089785 C75.3768893,80.9130777 74.840195,79.6104 74.4979471,78.2346645 L74.2585421,77.2871603 L70.4331207,77.2871603 L70.4331207,72.2950612 L74.2585421,72.2950612 L74.4979471,71.348119 C74.840195,69.9813752 75.3768893,68.6786975 76.099038,67.473243 L76.6014512,66.6386975 L73.8983107,63.9299372 L77.426443,60.3967471 L80.1396992,63.1055074 L80.9787405,62.6025322 C82.1746413,61.8854413 83.4733851,61.3436893 84.8440628,61.0020033 L85.791005,60.7670942 L85.791005,56.9366149 L90.788162,56.9366149 L90.788162,60.7670942 L91.7351041,61.0020033 C93.1063438,61.3487471 94.4095835,61.8854413 95.6054843,62.6025322 L96.4394678,63.1055074 L99.152724,60.3967471 L102.68198,63.9299372 L99.968162,66.6386975 L100.470575,67.473243 C101.193286,68.6736397 101.735038,69.9763174 102.08122,71.3526149 L102.320063,72.2950612 L106.151104,72.2950612 L106.151104,77.2871603 L102.320063,77.2871603 L102.08122,78.2346645 C101.735038,79.6104 101.193286,80.9130777 100.475633,82.1039207 L99.968162,82.943524 L102.68198,85.6573421 Z M87.6742116,105.756681 C87.6742116,106.025871 87.4466083,106.253474 87.1779802,106.253474 L21.8558314,106.253474 C21.5872033,106.253474 21.3596,106.025871 21.3596,105.756681 L21.3596,49.419524 L27.1013851,49.419524 C28.0601289,52.3024992 30.1355339,54.6521521 32.9409554,55.9868628 L32.9409554,65.2387967 C32.9409554,65.4051438 33.0724595,65.5411438 33.2371207,65.5484496 C32.1676661,66.6965818 31.5669058,68.1892099 31.5669058,69.7470281 C31.5669058,71.3958876 32.2221785,72.9441521 33.3877322,74.1063339 L28.5181455,74.1063339 C28.3467405,74.1063339 28.2073686,74.2457058 28.2073686,74.4171107 L28.2073686,80.7264992 C28.2073686,80.8979041 28.3467405,81.037276 28.5181455,81.037276 L32.6616496,81.037276 L32.6616496,84.4226645 L28.5198314,91.5991934 C28.464195,91.6952926 28.464195,91.8138711 28.5198314,91.9099702 L32.8010215,99.3253421 C32.8420463,99.396714 32.9100463,99.4489785 32.9898479,99.4697719 C33.0690876,99.4911273 33.1539471,99.4798876 33.225319,99.4388628 L34.5010215,98.7009785 C34.6493851,98.614995 34.7005256,98.4256066 34.6145421,98.277243 L30.8498149,91.7543008 L34.315005,85.7528793 L36.7096165,85.7528793 L36.7096165,91.8442182 C36.7096165,92.1302678 36.9411537,92.361805 37.2272033,92.361805 L38.3326248,92.361805 C38.6181124,92.361805 38.8502116,92.1302678 38.8502116,91.8442182 L38.8502116,85.7528793 L41.2420132,85.7528793 L44.7072033,91.7543008 L40.942476,98.277243 C40.8570545,98.4256066 40.908195,98.614995 41.0559967,98.7009785 L42.3322612,99.4388628 C42.4036331,99.4798876 42.4879306,99.4911273 42.5677322,99.4697719 C42.6469719,99.4489785 42.7149719,99.396714 42.7565587,99.3253421 L47.0371868,91.9099702 C47.0928231,91.8138711 47.0928231,91.6952926 47.0371868,91.5991934 L42.8964926,84.4226645 L42.8964926,81.037276 L47.0422446,81.037276 C47.2130876,81.037276 47.3524595,80.8979041 47.3524595,80.7264992 L47.3524595,74.4171107 C47.3524595,74.2457058 47.2130876,74.1063339 47.0422446,74.1063339 L42.168162,74.1063339 C43.3331537,72.945838 43.9878645,71.3975736 43.9878645,69.7470281 C43.9878645,68.187524 43.3871041,66.6948959 42.3176496,65.5484496 C42.4834347,65.5428298 42.6166248,65.4057058 42.6166248,65.2387967 L42.6166248,55.9902347 C45.3720298,54.6763174 47.4839636,52.2777719 48.4500132,49.419524 L87.6742116,49.419524 L87.6742116,54.4380364 L83.2929884,54.4380364 L83.2929884,58.8451107 C82.3404264,59.1424 81.4232694,59.5234248 80.5448893,59.9820033 L77.426443,56.863557 L70.3645587,63.9299372 L73.4785091,67.0433256 C73.0148727,67.9273256 72.6338479,68.8444826 72.3359967,69.7964826 L67.9339802,69.7964826 L67.9339802,79.7857388 L72.3359967,79.7857388 C72.6338479,80.7422347 73.0148727,81.6599537 73.4785091,82.5383339 L70.3645587,85.6573421 L77.426443,92.7186645 L80.5448893,89.605276 C81.4283273,90.0638545 82.3454843,90.4443174 83.2929884,90.7376727 L83.2929884,95.148681 L87.6742116,95.148681 L87.6742116,105.756681 Z M32.9409554,49.419524 L32.9409554,53.6119207 C31.3364926,52.6144 30.0888893,51.1386314 29.3549388,49.419524 L32.9409554,49.419524 Z M35.0365917,63.4533752 L40.5198645,63.4533752 L40.5198645,49.419524 L35.0365917,49.419524 L35.0365917,63.4533752 Z M37.7768231,73.8613091 C35.5080959,73.8613091 33.6625421,72.0157554 33.6625421,69.7470281 C33.6625421,67.4766149 35.5080959,65.6299372 37.7768231,65.6299372 C40.0455504,65.6299372 41.8916661,67.4766149 41.8916661,69.7470281 C41.8916661,72.0157554 40.0455504,73.8613091 37.7768231,73.8613091 L37.7768231,73.8613091 Z M34.757286,83.656681 L40.7997322,83.656681 L40.7997322,81.037276 L34.757286,81.037276 L34.757286,83.656681 Z M30.3035669,78.9405157 L45.2562612,78.9405157 L45.2562612,76.2030942 L30.3035669,76.2030942 L30.3035669,78.9405157 Z M46.1953355,49.419524 C45.4596992,51.1313256 44.2137818,52.6025983 42.6166248,53.598995 L42.6166248,49.419524 L46.1953355,49.419524 Z M21.3596,43.8564496 C21.3596,43.5872595 21.5872033,43.3602182 21.8558314,43.3602182 L87.1779802,43.3602182 C87.4466083,43.3602182 87.6742116,43.5872595 87.6742116,43.8564496 L87.6742116,47.0597554 L21.3596,47.0597554 L21.3596,43.8564496 Z M108.650245,79.7857388 L108.650245,69.7964826 L104.238112,69.7964826 C103.940823,68.8444826 103.55474,67.9222678 103.096724,67.0433256 L106.214608,63.9299372 L99.152724,56.863557 L96.0348397,59.9820033 C95.1558975,59.5234248 94.2387405,59.1424 93.2873025,58.8451107 L93.2873025,54.4380364 L90.0345421,54.4380364 L90.0345421,43.8564496 C90.0345421,42.2812099 88.7526579,41.0004496 87.1779802,41.0004496 L21.8558314,41.0004496 C20.2811537,41.0004496 18.9998314,42.2812099 18.9998314,43.8564496 L18.9998314,105.756681 C18.9998314,107.331921 20.2811537,108.613243 21.8558314,108.613243 L87.1779802,108.613243 C88.7526579,108.613243 90.0345421,107.331921 90.0345421,105.756681 L90.0345421,95.148681 L93.2873025,95.148681 L93.2873025,90.7376727 C94.2336826,90.4443174 95.1508397,90.0638545 96.0348397,89.605276 L99.152724,92.7186645 L106.214608,85.6573421 L103.096724,82.5383339 C103.55474,81.6599537 103.940823,80.7422347 104.238112,79.7857388 L108.650245,79.7857388 Z M88.8802281,79.0782017 C86.5182116,79.0782017 84.5956661,77.1556562 84.5956661,74.7936397 C84.5956661,72.4271273 86.5182116,70.5040198 88.8802281,70.5040198 C91.2422446,70.5040198 93.1653521,72.4271273 93.1653521,74.7936397 C93.1653521,77.1556562 91.2422446,79.0782017 88.8802281,79.0782017 L88.8802281,79.0782017 Z M88.8802281,68.0043174 C85.142476,68.0043174 82.0970876,71.0502678 82.0970876,74.7936397 C82.0970876,78.5319537 85.142476,81.5773421 88.8802281,81.5773421 C92.623038,81.5773421 95.6639306,78.5319537 95.6639306,74.7936397 C95.6639306,71.0502678 92.623038,68.0043174 88.8802281,68.0043174 L88.8802281,68.0043174 Z" id="Fill-1" fill="#3C4A69" mask="url(#mask-4)"></path>
            </g>
        </g>
    </g>
</svg>