<?xml version="1.0" encoding="UTF-8"?>
<svg width="166px" height="167px" viewBox="0 0 166 167" version="1.1" xmlns="http://www.w3.org/2000/svg" xmlns:xlink="http://www.w3.org/1999/xlink">
    <!-- Generator: Sketch 54.1 (76490) - https://sketchapp.com -->
    <title>Group 8</title>
    <desc>Created with Sketch.</desc>
    <g id="1.-Desktop" stroke="none" stroke-width="1" fill="none" fill-rule="evenodd">
        <g id="04-PickNik--Support" transform="translate(-1093.000000, -1764.000000)">
            <g id="Group-7-Copy" transform="translate(932.000000, 1677.000000)">
                <g id="Group-8" transform="translate(161.000000, 87.000000)">
                    <g id="Group-3">
                        <g id="Group-4">
                            <path d="M83,167 C128.839634,167 166,128.90164 166,83.0399449 C166,37.1782497 128.839634,0 83,0 C37.1603658,0 0,37.1782497 0,83.0399449 C0,128.90164 37.1603658,167 83,167 Z" id="Oval-Copy-2" fill-opacity="0.078407" fill="#3C4A69"></path>
                            <path d="M83,157 C123.316787,157 156,123.464318 156,83.0950413 C156,42.7257647 123.316787,10 83,10 C42.6832133,10 10,42.7257647 10,83.0950413 C10,123.464318 42.6832133,157 83,157 Z" id="Oval-Copy-3" fill="#FFFFFF"></path>
                        </g>
                    </g>
                    <g id="diamond" transform="translate(53.000000, 62.000000)" fill="#04E79F" fill-rule="nonzero">
                        <path d="M12.8323878,13.6026991 L0,13.6026991 L9.62429087,1.7154515 L12.8323878,13.6026991 Z M17.0275915,16.6255212 L29,45.9166667 L40.9724085,16.6255212 L17.0275915,16.6255212 Z M33.5167612,42.7729318 L57.7083548,16.6255212 L44.2104177,16.6255212 L33.5167612,42.7729318 Z M0.291645178,16.6255212 L24.4832388,42.7729318 L13.7895823,16.6255212 L0.291645178,16.6255212 Z M25.7320784,7.46069873e-14 L12.2640536,7.46069873e-14 L15.4945848,11.9779323 L25.7320784,7.46069873e-14 Z M45.7359464,7.46069873e-14 L32.2679216,7.46069873e-14 L42.5054152,11.9779323 L45.7359464,7.46069873e-14 Z M58,13.6026991 L48.3757091,1.7154515 L45.1676122,13.6026991 L58,13.6026991 L58,13.6026991 Z M39.9404332,13.6026991 L29,0.801047838 L18.0595668,13.6026991 L39.9404332,13.6026991 Z" id="Shape"></path>
                    </g>
                </g>
            </g>
        </g>
    </g>
</svg>