<?xml version="1.0" encoding="UTF-8"?>
<svg width="16px" height="16px" viewBox="0 0 16 16" version="1.1" xmlns="http://www.w3.org/2000/svg" xmlns:xlink="http://www.w3.org/1999/xlink">
    <!-- Generator: Sketch 54.1 (76490) - https://sketchapp.com -->
    <title>git</title>
    <desc>Created with Sketch.</desc>
    <g id="1.-Desktop" stroke="none" stroke-width="1" fill="none" fill-rule="evenodd">
        <g id="05-PickNik--Contact" transform="translate(-617.000000, -770.000000)" fill="#868A92" fill-rule="nonzero">
            <path d="M625,770.761719 C627.132823,770.808594 628.902337,771.535149 630.308594,772.941406 C631.714851,774.347663 632.441406,776.117177 632.488281,778.25 C632.464844,779.937508 631.98438,781.414056 631.046875,782.679688 C630.10937,783.945319 628.890633,784.847654 627.390625,785.386719 C627.203124,785.410156 627.06836,785.38086 626.986328,785.298828 C626.904296,785.216796 626.863281,785.117188 626.863281,785 L626.863281,782.960938 C626.863281,782.609373 626.816407,782.316407 626.722656,782.082031 C626.628906,781.847655 626.511719,781.671876 626.371094,781.554688 C627.238286,781.507812 628.011715,781.232424 628.691406,780.728516 C629.371097,780.224607 629.734375,779.269538 629.78125,777.863281 C629.78125,777.042965 629.52344,776.375003 629.007812,775.859375 C629.078125,775.742187 629.130859,775.507814 629.166016,775.15625 C629.201172,774.804686 629.125001,774.371096 628.9375,773.855469 C628.9375,773.832031 628.773439,773.84375 628.445312,773.890625 C628.117186,773.9375 627.589847,774.183592 626.863281,774.628906 C626.277341,774.464843 625.656253,774.382812 625,774.382812 C624.343747,774.382812 623.722659,774.464843 623.136719,774.628906 C622.410153,774.183592 621.882814,773.9375 621.554688,773.890625 C621.226561,773.84375 621.0625,773.832031 621.0625,773.855469 C620.874999,774.371096 620.804687,774.804686 620.851562,775.15625 C620.898438,775.507814 620.945312,775.742187 620.992188,775.859375 C620.47656,776.375003 620.21875,777.042965 620.21875,777.863281 C620.265625,779.269538 620.628903,780.224607 621.308594,780.728516 C621.988285,781.232424 622.761714,781.507812 623.628906,781.554688 C623.39453,781.742188 623.242188,782.082029 623.171875,782.574219 C622.914061,782.691407 622.568362,782.75 622.134766,782.75 C621.70117,782.75 621.308596,782.480471 620.957031,781.941406 C620.957031,781.917969 620.863282,781.800782 620.675781,781.589844 C620.48828,781.378905 620.207033,781.238282 619.832031,781.167969 C619.785156,781.167969 619.691407,781.191406 619.550781,781.238281 C619.410156,781.285156 619.480467,781.414061 619.761719,781.625 C619.785156,781.625 619.884765,781.701171 620.060547,781.853516 C620.236329,782.00586 620.417968,782.292967 620.605469,782.714844 C620.582031,782.785157 620.740233,783.01367 621.080078,783.400391 C621.419924,783.787111 622.105464,783.898438 623.136719,783.734375 L623.136719,785 C623.136719,785.117188 623.095704,785.216796 623.013672,785.298828 C622.93164,785.38086 622.808595,785.410156 622.644531,785.386719 C621.121086,784.847654 619.89063,783.945319 618.953125,782.679688 C618.01562,781.414056 617.535156,779.937508 617.511719,778.25 C617.558594,776.117177 618.285149,774.347663 619.691406,772.941406 C621.097663,771.535149 622.867177,770.808594 625,770.761719 Z" id="git"></path>
        </g>
    </g>
</svg>
