<svg width="14px" height="14px" viewBox="0 0 14 14" version="1.1" xmlns="http://www.w3.org/2000/svg" xmlns:xlink="http://www.w3.org/1999/xlink">
    <g id="Symbols" stroke="none" stroke-width="1" fill="none" fill-rule="evenodd">
        <g id="Footer-2" transform="translate(-1534.000000, -242.000000)" fill="#121929" fill-rule="nonzero">
            <path d="M1541,242.34375 C1542.89584,242.385417 1544.46874,243.031244 1545.71875,244.28125 C1546.96876,245.531256 1547.61458,247.104157 1547.65625,249 C1547.63542,250.500007 1547.20834,251.812494 1546.375,252.9375 C1545.54166,254.062506 1544.45834,254.864581 1543.125,255.34375 C1542.95833,255.364583 1542.83854,255.338542 1542.76562,255.265625 C1542.69271,255.192708 1542.65625,255.104167 1542.65625,255 L1542.65625,253.1875 C1542.65625,252.874998 1542.61458,252.614584 1542.53125,252.40625 C1542.44792,252.197916 1542.34375,252.041667 1542.21875,251.9375 C1542.98959,251.895833 1543.67708,251.651044 1544.28125,251.203125 C1544.88542,250.755206 1545.20833,249.906256 1545.25,248.65625 C1545.25,247.92708 1545.02084,247.333336 1544.5625,246.875 C1544.625,246.770833 1544.67187,246.562502 1544.70312,246.25 C1544.73438,245.937498 1544.66667,245.552086 1544.5,245.09375 C1544.5,245.072917 1544.35417,245.083333 1544.0625,245.125 C1543.77083,245.166667 1543.30209,245.385415 1542.65625,245.78125 C1542.13541,245.635416 1541.58334,245.5625 1541,245.5625 C1540.41666,245.5625 1539.86459,245.635416 1539.34375,245.78125 C1538.69791,245.385415 1538.22917,245.166667 1537.9375,245.125 C1537.64583,245.083333 1537.5,245.072917 1537.5,245.09375 C1537.33333,245.552086 1537.27083,245.937498 1537.3125,246.25 C1537.35417,246.562502 1537.39583,246.770833 1537.4375,246.875 C1536.97916,247.333336 1536.75,247.92708 1536.75,248.65625 C1536.79167,249.906256 1537.11458,250.755206 1537.71875,251.203125 C1538.32292,251.651044 1539.01041,251.895833 1539.78125,251.9375 C1539.57292,252.104168 1539.4375,252.406248 1539.375,252.84375 C1539.14583,252.947917 1538.83854,253 1538.45312,253 C1538.06771,253 1537.71875,252.760419 1537.40625,252.28125 C1537.40625,252.260417 1537.32292,252.156251 1537.15625,251.96875 C1536.98958,251.781249 1536.73959,251.65625 1536.40625,251.59375 C1536.36458,251.59375 1536.28125,251.614583 1536.15625,251.65625 C1536.03125,251.697917 1536.09375,251.812499 1536.34375,252 C1536.36458,252 1536.45312,252.067708 1536.60938,252.203125 C1536.76563,252.338542 1536.92708,252.593748 1537.09375,252.96875 C1537.07292,253.03125 1537.21354,253.234373 1537.51562,253.578125 C1537.81771,253.921877 1538.42708,254.020834 1539.34375,253.875 L1539.34375,255 C1539.34375,255.104167 1539.30729,255.192708 1539.23438,255.265625 C1539.16146,255.338542 1539.05208,255.364583 1538.90625,255.34375 C1537.55208,254.864581 1536.45834,254.062506 1535.625,252.9375 C1534.79166,251.812494 1534.36458,250.500007 1534.34375,249 C1534.38542,247.104157 1535.03124,245.531256 1536.28125,244.28125 C1537.53126,243.031244 1539.10416,242.385417 1541,242.34375 Z" id="github"></path>
        </g>
    </g>
</svg>
