<?xml version="1.0" encoding="UTF-8"?>
<svg width="14px" height="14px" viewBox="0 0 14 14" version="1.1" xmlns="http://www.w3.org/2000/svg" xmlns:xlink="http://www.w3.org/1999/xlink">
    <title>228E75EE-F1C9-41FD-9330-11EBE4CE6A41</title>
    <g id="1.-Desktop---Archive" stroke="none" stroke-width="1" fill="none" fill-rule="evenodd">
        <g id="01-PickNik-Jobs" transform="translate(-989.000000, -981.000000)" fill="#121929" fill-rule="nonzero">
            <g id="Group-7" transform="translate(252.000000, 526.000000)">
                <g id="Group" transform="translate(736.000000, 203.000000)">
                    <path d="M10.8125,265.65625 C11.5,265.65625 12.140625,265.484375 12.734375,265.140625 C13.328125,264.796875 13.796875,264.328125 14.140625,263.734375 C14.484375,263.140625 14.65625,262.5 14.65625,261.8125 L14.65625,261.8125 L14.65625,256.1875 C14.65625,255.5 14.484375,254.859375 14.140625,254.265625 C13.796875,253.671875 13.328125,253.203125 12.734375,252.859375 C12.140625,252.515625 11.5,252.34375 10.8125,252.34375 L10.8125,252.34375 L5.1875,252.34375 C4.5,252.34375 3.859375,252.515625 3.265625,252.859375 C2.671875,253.203125 2.203125,253.671875 1.859375,254.265625 C1.515625,254.859375 1.34375,255.5 1.34375,256.1875 L1.34375,256.1875 L1.34375,261.8125 C1.34375,262.5 1.515625,263.140625 1.859375,263.734375 C2.203125,264.328125 2.671875,264.796875 3.265625,265.140625 C3.859375,265.484375 4.5,265.65625 5.1875,265.65625 L5.1875,265.65625 L10.8125,265.65625 Z M10.9375,264.34375 L5.0625,264.34375 C4.39583333,264.34375 3.828125,264.109375 3.359375,263.640625 C2.890625,263.171875 2.65625,262.604167 2.65625,261.9375 L2.65625,261.9375 L2.65625,256.0625 C2.65625,255.395833 2.890625,254.828125 3.359375,254.359375 C3.828125,253.890625 4.39583333,253.65625 5.0625,253.65625 L5.0625,253.65625 L10.9375,253.65625 C11.6041667,253.65625 12.171875,253.890625 12.640625,254.359375 C13.109375,254.828125 13.34375,255.395833 13.34375,256.0625 L13.34375,256.0625 L13.34375,261.9375 C13.34375,262.604167 13.109375,263.171875 12.640625,263.640625 C12.171875,264.109375 11.6041667,264.34375 10.9375,264.34375 L10.9375,264.34375 Z M11.5,256.34375 C11.7291667,256.34375 11.9270833,256.260417 12.09375,256.09375 C12.2604167,255.927083 12.34375,255.729167 12.34375,255.5 C12.34375,255.270833 12.2604167,255.072917 12.09375,254.90625 C11.9270833,254.739583 11.7291667,254.65625 11.5,254.65625 C11.2708333,254.65625 11.0729167,254.739583 10.90625,254.90625 C10.7395833,255.072917 10.65625,255.270833 10.65625,255.5 C10.65625,255.729167 10.7395833,255.927083 10.90625,256.09375 C11.0729167,256.260417 11.2708333,256.34375 11.5,256.34375 Z M8,262.34375 C8.60416667,262.34375 9.16145833,262.192708 9.671875,261.890625 C10.1822917,261.588542 10.5885417,261.182292 10.890625,260.671875 C11.1927083,260.161458 11.34375,259.604167 11.34375,259 C11.34375,258.5625 11.2552083,258.140625 11.078125,257.734375 C10.9010417,257.328125 10.65625,256.96875 10.34375,256.65625 C10.03125,256.34375 9.671875,256.098958 9.265625,255.921875 C8.859375,255.744792 8.4375,255.65625 8,255.65625 C7.5625,255.65625 7.140625,255.744792 6.734375,255.921875 C6.328125,256.098958 5.96875,256.34375 5.65625,256.65625 C5.34375,256.96875 5.09895833,257.328125 4.921875,257.734375 C4.74479167,258.140625 4.65625,258.5625 4.65625,259 C4.65625,259.604167 4.80729167,260.161458 5.109375,260.671875 C5.41145833,261.182292 5.81770833,261.588542 6.328125,261.890625 C6.83854167,262.192708 7.39583333,262.34375 8,262.34375 Z M8,261 C7.4375,261 6.96354167,260.807292 6.578125,260.421875 C6.19270833,260.036458 6,259.5625 6,259 C6,258.4375 6.19270833,257.963542 6.578125,257.578125 C6.96354167,257.192708 7.4375,257 8,257 C8.5625,257 9.03645833,257.192708 9.421875,257.578125 C9.80729167,257.963542 10,258.4375 10,259 C10,259.5625 9.80729167,260.036458 9.421875,260.421875 C9.03645833,260.807292 8.5625,261 8,261 Z" id=""></path>
                </g>
            </g>
        </g>
    </g>
</svg>