<?xml version="1.0" encoding="UTF-8"?>
<svg width="14px" height="14px" viewBox="0 0 14 14" version="1.1" xmlns="http://www.w3.org/2000/svg" xmlns:xlink="http://www.w3.org/1999/xlink">
    <!-- Generator: Sketch 54.1 (76490) - https://sketchapp.com -->
    <title>linked</title>
    <desc>Created with Sketch.</desc>
    <g stroke="none" stroke-width="1" fill="none" fill-rule="evenodd">
        <g id="05-PickNik--Contact" transform="translate(-548.000000, -770.000000)" fill="#868A92" fill-rule="nonzero">
            <path d="M561.75,784 L558.761719,784 L558.761719,778.9375 C558.738281,778.539061 558.556642,778.19922 558.216797,777.917969 C557.876951,777.636717 557.496096,777.496094 557.074219,777.496094 C556.652342,777.496094 556.330079,777.636717 556.107422,777.917969 C555.884765,778.19922 555.761719,778.539061 555.738281,778.9375 L555.738281,784 L552.75,784 L552.75,775 L555.738281,775 L555.738281,776.511719 C556.019533,776.089842 556.417966,775.76172 556.933594,775.527344 C557.449221,775.292968 557.929685,775.175781 558.375,775.175781 C559.335942,775.199219 560.132809,775.5332 560.765625,776.177734 C561.398441,776.822269 561.726562,777.613277 561.75,778.550781 L561.75,784 Z M551.238281,784 L548.25,784 L548.25,775 L551.238281,775 L551.238281,784 Z M549.761719,770.5 C550.183596,770.5 550.535155,770.646483 550.816406,770.939453 C551.097658,771.232423 551.238281,771.589842 551.238281,772.011719 C551.238281,772.433596 551.097658,772.785155 550.816406,773.066406 C550.535155,773.347658 550.183596,773.488281 549.761719,773.488281 C549.339842,773.488281 548.982423,773.347658 548.689453,773.066406 C548.396483,772.785155 548.25,772.433596 548.25,772.011719 C548.25,771.589842 548.396483,771.232423 548.689453,770.939453 C548.982423,770.646483 549.339842,770.5 549.761719,770.5 Z" id="linked"></path>
        </g>
    </g>
</svg>
