<svg width="12px" height="12px" viewBox="0 0 12 12" version="1.1" xmlns="http://www.w3.org/2000/svg" xmlns:xlink="http://www.w3.org/1999/xlink">
    <g id="Symbols" stroke="none" stroke-width="1" fill="none" fill-rule="evenodd">
        <g id="Footer-2" transform="translate(-1471.000000, -242.000000)" fill="#121929" fill-rule="nonzero">
            <path d="M1483,254 L1480.34375,254 L1480.34375,249.5 C1480.32292,249.145832 1480.16146,248.843751 1479.85938,248.59375 C1479.55729,248.343749 1479.21875,248.21875 1478.84375,248.21875 C1478.46875,248.21875 1478.18229,248.343749 1477.98438,248.59375 C1477.78646,248.843751 1477.67708,249.145832 1477.65625,249.5 L1477.65625,254 L1475,254 L1475,246 L1477.65625,246 L1477.65625,247.34375 C1477.90625,246.968748 1478.26041,246.677084 1478.71875,246.46875 C1479.17709,246.260416 1479.60416,246.15625 1480,246.15625 C1480.85417,246.177083 1481.5625,246.473955 1482.125,247.046875 C1482.6875,247.619795 1482.97917,248.322913 1483,249.15625 L1483,254 Z M1473.65625,254 L1471,254 L1471,246 L1473.65625,246 L1473.65625,254 Z M1472.34375,242 C1472.71875,242 1473.03125,242.130207 1473.28125,242.390625 C1473.53125,242.651043 1473.65625,242.968748 1473.65625,243.34375 C1473.65625,243.718752 1473.53125,244.031249 1473.28125,244.28125 C1473.03125,244.531251 1472.71875,244.65625 1472.34375,244.65625 C1471.96875,244.65625 1471.65104,244.531251 1471.39062,244.28125 C1471.13021,244.031249 1471,243.718752 1471,243.34375 C1471,242.968748 1471.13021,242.651043 1471.39062,242.390625 C1471.65104,242.130207 1471.96875,242 1472.34375,242 Z" id="linked-in"></path>
        </g>
    </g>
</svg>
