<svg width="16px" height="13px" viewBox="0 0 16 13" version="1.1" xmlns="http://www.w3.org/2000/svg" xmlns:xlink="http://www.w3.org/1999/xlink">
    <g stroke="none" stroke-width="1" fill="none" fill-rule="evenodd">
        <g id="05-PickNik--Contact" transform="translate(-373.000000, -638.000000)" fill="#121929" fill-rule="nonzero">
            <path d="M387.011719,641.261719 L387.011719,639.75 L381,643.511719 L374.988281,639.75 L374.988281,641.261719 L381,644.988281 L387.011719,641.261719 Z M387.011719,638.238281 C387.433596,638.261719 387.785155,638.414061 388.066406,638.695312 C388.347658,638.976564 388.488281,639.328123 388.488281,639.75 L388.488281,648.75 C388.488281,649.171877 388.347658,649.523436 388.066406,649.804688 C387.785155,650.085939 387.433596,650.238281 387.011719,650.261719 L374.988281,650.261719 C374.566404,650.238281 374.214845,650.085939 373.933594,649.804688 C373.652342,649.523436 373.511719,649.171877 373.511719,648.75 L373.511719,639.75 C373.511719,639.328123 373.652342,638.976564 373.933594,638.695312 C374.214845,638.414061 374.566404,638.261719 374.988281,638.238281 L387.011719,638.238281 Z" id="mail"></path>
        </g>
    </g>
</svg>
