<?xml version="1.0" encoding="UTF-8"?>
<svg width="193px" height="189px" viewBox="1.5 53 132.76258850097656 136" version="1.1" xmlns="http://www.w3.org/2000/svg" xmlns:xlink="http://www.w3.org/1999/xlink">
    <!-- Generator: Sketch 54.1 (76490) - https://sketchapp.com -->
    <title>Group 6</title>
    <desc>Created with Sketch.</desc>
    <defs>
        <path d="M100,17.1315464 C100,7.67002831 107.669611,-2.13162821e-14 117.131976,-2.13162821e-14 C126.592979,-2.13162821e-14 134.26259,7.67002831 134.26259,17.1315464 C134.26259,26.5930644 126.592979,34.2644551 117.131976,34.2644551 C107.669611,34.2644551 100,26.5930644 100,17.1315464" id="path-1"></path>
        <filter x="-284.6%" y="-267.0%" width="669.1%" height="669.1%" filterUnits="objectBoundingBox" id="filter-2">
            <feOffset dx="0" dy="6" in="SourceAlpha" result="shadowOffsetOuter1"></feOffset>
            <feGaussianBlur stdDeviation="31.5" in="shadowOffsetOuter1" result="shadowBlurOuter1"></feGaussianBlur>
            <feColorMatrix values="0 0 0 0 0.0754548834   0 0 0 0 0.096736573   0 0 0 0 0.145380435  0 0 0 0.12 0" type="matrix" in="shadowBlurOuter1"></feColorMatrix>
        </filter>
        <polygon id="path-3" points="0.000189230769 0.000503225806 81.426 0.000503225806 81.426 77.6476161 0.000189230769 77.6476161"></polygon>
    </defs>
    <g stroke="none" stroke-width="1" fill="none" fill-rule="evenodd">
        <g id="01-PickNik-Services-v1-Copy" transform="translate(-1196.000000, -540.000000)">
            <g id="Group-6" transform="translate(1196.000000, 593.000000)">
                <rect id="Rectangle-Copy" stroke="#ECEFF6" stroke-width="3" x="1.5" y="17.5" width="117" height="117" rx="16"></rect>
                <g id="Fill-7">
                    <use fill="black" fill-opacity="1" filter="url(#filter-2)" xlink:href="#path-1"></use>
                    <use fill="#3C4A69" fill-rule="evenodd" xlink:href="#path-1"></use>
                </g>
                <g id="Fill-1" transform="translate(19.999811, 37.999497)">
                    <mask id="mask-4" fill="white">
                        <use xlink:href="#path-3"></use>
                    </mask>
                    <g id="Mask"></g>
                    <path d="M11.9127077,25.3808226 C10.4802308,25.3808226 9.31456923,24.218371 9.31456923,22.7904677 C9.31456923,21.3613065 10.4802308,20.1994839 11.9127077,20.1994839 C13.3451846,20.1994839 14.5108462,21.3613065 14.5108462,22.7904677 C14.5108462,24.218371 13.3451846,25.3808226 11.9127077,25.3808226 L11.9127077,25.3808226 Z M11.9127077,18.408 C9.48929231,18.408 7.51813846,20.3737258 7.51813846,22.7904677 C7.51813846,25.2065806 9.48929231,27.1723065 11.9127077,27.1723065 C14.3361231,27.1723065 16.3072769,25.2065806 16.3072769,22.7904677 C16.3072769,20.3737258 14.3361231,18.408 11.9127077,18.408 L11.9127077,18.408 Z M77.5858769,60.8148387 L40.1484615,60.8148387 C39.1436462,60.8148387 38.3261692,59.9996129 38.3261692,58.9975645 C38.3261692,57.9961452 39.1436462,57.1802903 40.1484615,57.1802903 L77.5858769,57.1802903 C78.5906923,57.1802903 79.4081692,57.9961452 79.4081692,58.9975645 C79.4081692,59.9996129 78.5906923,60.8148387 77.5858769,60.8148387 L77.5858769,60.8148387 Z M59.8581077,75.6706935 L76.9475385,75.6706935 L76.9475385,63.5668548 L59.8581077,63.5668548 L59.8581077,75.6706935 Z M40.6984923,75.6706935 L57.8762308,75.6706935 L57.8762308,63.5668548 L40.6984923,63.5668548 L40.6984923,75.6706935 Z M43.4883846,55.1673871 L72.1934308,55.1673871 L72.1934308,53.4671129 L43.4883846,53.4671129 L43.4883846,55.1673871 Z M38.1060308,16.0321452 C39.0338923,15.6610161 39.8759692,15.1263387 40.6045077,14.4671129 L49.4472615,23.4880645 C48.7654,24.0950806 48.1478769,24.7694032 47.6035231,25.5034839 L38.1060308,16.0321452 Z M35.0146308,14.6187097 C31.5296308,14.6187097 28.6936923,11.7912097 28.6936923,8.31580645 C28.6936923,4.84040323 31.5296308,2.01290323 35.0146308,2.01290323 C38.499,2.01290323 41.3349385,4.84040323 41.3349385,8.31580645 C41.3349385,11.7912097 38.499,14.6187097 35.0146308,14.6187097 L35.0146308,14.6187097 Z M20.0029538,20.8146774 C19.7910154,19.9529032 19.4459846,19.1458548 18.9886769,18.4124032 L28.2319692,13.1348226 C28.7693846,13.8852581 29.4272769,14.5413387 30.1791538,15.0772742 L20.0029538,20.8146774 Z M11.9127077,29.0927419 C8.42770769,29.0927419 5.59176923,26.2652419 5.59176923,22.7904677 C5.59176923,19.3144355 8.42770769,16.4869355 11.9127077,16.4869355 C15.3970769,16.4869355 18.2330154,19.3144355 18.2330154,22.7904677 C18.2330154,26.2652419 15.3970769,29.0927419 11.9127077,29.0927419 L11.9127077,29.0927419 Z M9.92515385,34.9930645 L4.29112308,33.7576452 L5.54698462,28.1498226 C6.87853846,29.718629 8.77841538,30.7886129 10.9287077,31.0421129 L9.92515385,34.9930645 Z M9.81918462,38.883629 L2.57353846,37.2940645 L2.93307692,35.6655 L10.1780923,37.2544355 L9.81918462,38.883629 Z M26.7080308,8.94924194 C26.7742615,9.80975806 26.9685385,10.6337903 27.2776154,11.4012097 L17.7359692,16.8492581 C17.1405231,16.2692903 16.4574,15.7792742 15.7099385,15.3961935 L26.7080308,8.94924194 Z M43.0809077,10.3828065 L54.0518769,20.8171935 C52.9770462,21.1757419 51.9627692,21.6670161 51.0298615,22.2740323 L41.9152462,12.9763065 C42.4463538,12.1969355 42.8393231,11.3200645 43.0809077,10.3828065 L43.0809077,10.3828065 Z M57.2391538,46.4773065 L57.2076154,51.4548387 L48.9275077,51.4548387 L48.9275077,42.6980806 C51.0979846,44.8437097 54.0096154,46.235129 57.2391538,46.4773065 L57.2391538,46.4773065 Z M66.4168462,43.6844032 L66.4168462,51.4548387 L59.1901231,51.4548387 L59.2216615,46.4779355 C61.9270308,46.2779032 64.4059538,45.2676774 66.4168462,43.6844032 L66.4168462,43.6844032 Z M58.2364,22.1431935 C64.4210923,22.1431935 69.4533692,27.1609839 69.4533692,33.3292742 C69.4533692,39.4969355 64.4210923,44.5153548 58.2364,44.5153548 C52.0517077,44.5153548 47.0194308,39.4969355 47.0194308,33.3292742 C47.0194308,27.1609839 52.0517077,22.1431935 58.2364,22.1431935 L58.2364,22.1431935 Z M77.5858769,55.1680161 L74.2112615,55.1680161 L74.2112615,51.4548387 L68.3993538,51.4548387 L68.3993538,41.7708871 C70.315,39.4805806 71.4712,36.5379677 71.4712,33.3292742 C71.4712,26.0507419 65.5344,20.1302903 58.2364,20.1302903 C57.5974308,20.1302903 56.9736,20.1913065 56.3586,20.279371 L43.3313231,7.88869355 C43.1061385,3.50245161 39.4678615,4.26325641e-14 35.0146308,4.26325641e-14 C31.0187077,4.26325641e-14 27.6743692,2.81806452 26.8657231,6.56458065 L13.1868615,14.5822258 C12.7699231,14.5180645 12.3466769,14.4746613 11.9127077,14.4746613 C7.3144,14.4746613 3.57393846,18.2048226 3.57393846,22.7904677 C3.57393846,23.7855968 3.75938462,24.7366935 4.08296923,25.622371 L2.35592308,33.3330484 L1.28676923,33.0990484 L-2.62900812e-13,38.9358387 L1.58638462,39.2843226 L0.946784615,46.6421129 L2.47703077,46.9239194 L4.21038462,39.8598871 L7.20149231,40.5159677 L5.617,47.5762258 L7.11318462,48.0014516 L9.82990769,41.0927903 L11.4648615,41.4513387 L12.7516308,35.6132903 L11.8628769,35.4176613 L12.9768154,31.0295323 C17.0206769,30.5124677 20.1625385,27.1024839 20.2426462,22.950871 L32.2821385,16.1636129 C33.1393538,16.4605161 34.0564923,16.6309839 35.0146308,16.6309839 C35.2997385,16.6309839 35.5816923,16.6158871 35.8604923,16.5882097 L46.5167077,27.2169677 C45.5535231,29.0461935 45.0016,31.1232581 45.0016,33.3292742 C45.0016,35.8391129 45.7206769,38.1791129 46.945,40.1788065 L46.945,51.4548387 L41.4699231,51.4548387 L41.4699231,55.1680161 L40.1484615,55.1680161 C38.0303385,55.1680161 36.3083385,56.8859032 36.3083385,58.9975645 C36.3083385,60.6047419 37.3068462,61.9810645 38.7159846,62.5484516 L38.7159846,77.6477419 L78.9300462,77.6477419 L78.9300462,62.5805323 C80.3858615,62.0351613 81.426,60.6380806 81.426,58.9975645 C81.426,56.8859032 79.704,55.1680161 77.5858769,55.1680161 L77.5858769,55.1680161 Z M35.0146308,10.9061613 C33.5821538,10.9061613 32.4164923,9.74433871 32.4164923,8.31580645 C32.4164923,6.88727419 33.5821538,5.72482258 35.0146308,5.72482258 C36.4471077,5.72482258 37.6121385,6.88727419 37.6121385,8.31580645 C37.6121385,9.74433871 36.4471077,10.9061613 35.0146308,10.9061613 L35.0146308,10.9061613 Z M35.0146308,3.93333871 C32.5912154,3.93333871 30.6200615,5.89906452 30.6200615,8.31580645 C30.6200615,10.7319194 32.5912154,12.6976452 35.0146308,12.6976452 C37.4374154,12.6976452 39.4085692,10.7319194 39.4085692,8.31580645 C39.4085692,5.89906452 37.4374154,3.93333871 35.0146308,3.93333871 L35.0146308,3.93333871 Z M58.2364,27.8013387 C61.2924769,27.8013387 63.7796,30.2809839 63.7796,33.3292742 C63.7796,36.3769355 61.2924769,38.8572097 58.2364,38.8572097 C55.1803231,38.8572097 52.6932,36.3769355 52.6932,33.3292742 C52.6932,30.2809839 55.1803231,27.8013387 58.2364,27.8013387 L58.2364,27.8013387 Z M58.2364,40.8694839 C62.4057846,40.8694839 65.7974308,37.4871774 65.7974308,33.3292742 C65.7974308,29.1707419 62.4057846,25.7884355 58.2364,25.7884355 C54.0670154,25.7884355 50.6753692,29.1707419 50.6753692,33.3292742 C50.6753692,37.4871774 54.0670154,40.8694839 58.2364,40.8694839 L58.2364,40.8694839 Z" fill="#3C4A69" mask="url(#mask-4)"></path>
                </g>
                <g transform="translate(113.000000, 10.000000)" fill="#FFFFFF">
                    <path d="M8.16582929,8.2172338 C7.85818327,8.2172338 7.60941134,7.97852056 7.60941134,7.68454961 C7.60941134,7.39057867 7.85818327,7.15186543 8.16582929,7.15186543 C8.47232092,7.15186543 8.72167005,7.39057867 8.72167005,7.68454961 C8.72167005,7.97852056 8.47232092,8.2172338 8.16582929,8.2172338 M1.67005374,13.9723228 C1.36298491,13.9723228 1.11421299,13.7336096 1.11421299,13.4401912 C1.11421299,13.1456677 1.36298491,12.907507 1.67005374,12.907507 C1.97712257,12.907507 2.22647169,13.1456677 2.22647169,13.4401912 C2.22647169,13.7336096 1.97712257,13.9723228 1.67005374,13.9723228 M2.05158099,2.0874976 C1.74451216,2.0874976 1.49516304,1.84933694 1.49516304,1.55481342 C1.49516304,1.26084247 1.74451216,1.02268181 2.05158099,1.02268181 C2.35864982,1.02268181 2.60799894,1.26084247 2.60799894,1.55481342 C2.60799894,1.84933694 2.35864982,2.0874976 2.05158099,2.0874976 M9.87202376,7.14191904 C9.79583375,6.95514803 9.67981714,6.77887598 9.52224235,6.62802247 L3.05648104,0.438055384 C2.44638377,-0.146018461 1.45764523,-0.146018461 0.847547952,0.438055384 C0.237450675,1.02212923 0.237450675,1.96869356 0.847547952,2.5527674 L6.1716135,7.64973727 L0.532398365,12.379796 C-0.116371114,12.9246369 -0.181017183,13.8689909 0.38694471,14.4900874 C0.956060997,15.1111839 1.94306794,15.1736251 2.59126023,14.6293368 L9.46798583,8.85988081 C9.99092635,8.42058212 10.1340712,7.72212485 9.87202376,7.14191904" id="Fill-1"></path>
                </g>
            </g>
        </g>
    </g>
</svg>
