<?xml version="1.0" encoding="UTF-8"?>
<svg width="14px" height="14px" viewBox="0 0 14 14" version="1.1" xmlns="http://www.w3.org/2000/svg" xmlns:xlink="http://www.w3.org/1999/xlink">
    <!-- Generator: Sketch 54.1 (76490) - https://sketchapp.com -->
    <title>phone</title>
    <desc>Created with Sketch.</desc>
    <g stroke="none" stroke-width="1" fill="none" fill-rule="evenodd">
        <g id="05-PickNik--Contact" transform="translate(-374.000000, -679.000000)" fill="#121929" fill-rule="nonzero">
            <path d="M376.957031,685.335938 C377.519534,686.414068 378.216793,687.369136 379.048828,688.201172 C379.880864,689.033207 380.835932,689.730466 381.914062,690.292969 L383.566406,688.640625 C383.800782,688.429686 384.058592,688.371093 384.339844,688.464844 C385.183598,688.746095 386.074214,688.886719 387.011719,688.886719 C387.222657,688.886719 387.398437,688.957031 387.539062,689.097656 C387.679688,689.238282 387.75,689.414061 387.75,689.625 L387.75,692.261719 C387.75,692.472657 387.679688,692.648437 387.539062,692.789062 C387.398437,692.929688 387.222657,693 387.011719,693 C383.402326,692.90625 380.396496,691.658215 377.994141,689.255859 C375.591785,686.853504 374.34375,683.847674 374.25,680.238281 C374.25,680.027343 374.320312,679.851563 374.460938,679.710938 C374.601563,679.570312 374.777343,679.5 374.988281,679.5 L377.625,679.5 C377.835939,679.5 378.011718,679.570312 378.152344,679.710938 C378.292969,679.851563 378.363281,680.027343 378.363281,680.238281 C378.363281,681.175786 378.503905,682.066402 378.785156,682.910156 C378.878907,683.191408 378.820314,683.449218 378.609375,683.683594 L376.957031,685.335938 Z" id="phone"></path>
        </g>
    </g>
</svg>
