<?xml version="1.0" encoding="UTF-8"?>
<svg width="154px" height="48px" viewBox="0 0 154 48" version="1.1" xmlns="http://www.w3.org/2000/svg" xmlns:xlink="http://www.w3.org/1999/xlink">
    <title>F88AE49E-4F4B-4A95-A35F-CA5BD91CE977</title>
    <g id="2020---Desktop" stroke="none" stroke-width="1" fill="none" fill-rule="evenodd">
        <g id="01-PickNik-moveit-studio-v3" transform="translate(-180.000000, -55.000000)" fill-rule="nonzero">
            <g id="picknik_logo_final_square" transform="translate(180.000000, 55.000000)">
                <path d="M48.225,16.515 L52.275,16.515 C53.018883,16.5075832 53.7614298,16.5796588 54.49,16.73 C55.0819087,16.8486058 55.6433726,17.0868027 56.14,17.43 C56.5948737,17.7573046 56.9553385,18.1988308 57.185,18.71 C57.4416935,19.3219242 57.5644428,19.9817016 57.545,20.645 C57.545,22.1016667 57.08,23.185 56.15,23.895 C55.22,24.605 53.9233333,24.9616667 52.26,24.965 L49.26,24.965 L49.26,31.335 L48.225,31.335 L48.225,16.515 Z M52.005,24.095 C53.535,24.095 54.6633333,23.825 55.39,23.285 C56.1166667,22.745 56.48,21.8683333 56.48,20.655 C56.4983628,20.1194042 56.4029301,19.5860034 56.2,19.09 C56.0185282,18.6864693 55.7296842,18.3405484 55.365,18.09 C54.9432823,17.8136417 54.4678768,17.6296137 53.97,17.55 C53.3194014,17.438628 52.6600107,17.386747 52,17.395 L49.255,17.395 L49.255,24.1 L52.005,24.095 Z" id="Shape" fill="#FFFFFF"></path>
                <polygon id="Path" fill="#FFFFFF" points="63.73 30.43 67.555 30.43 67.555 17.43 63.73 17.43 63.73 16.53 72.415 16.53 72.415 17.43 68.59 17.43 68.59 30.43 72.415 30.43 72.415 31.33 63.73 31.33"></polygon>
                <path d="M78.69,23.895 C78.6752312,22.8190497 78.8304768,21.7475174 79.15,20.72 C79.4233001,19.838093 79.8628752,19.0166475 80.445,18.3 C80.9843761,17.642196 81.6689841,17.1184709 82.445,16.77 C83.2641653,16.4106065 84.1505203,16.2299265 85.045,16.24 C85.8321075,16.2238554 86.6102111,16.4097739 87.305,16.78 C87.9017772,17.0974711 88.4382399,17.5171643 88.89,18.02 L88.26,18.695 C87.8693513,18.2454128 87.3957134,17.8753301 86.865,17.605 C86.2989631,17.3217177 85.6728768,17.1793474 85.04,17.19 C84.2817806,17.1798408 83.5311821,17.342271 82.845,17.665 C82.1948434,17.9784846 81.6252425,18.4369021 81.18,19.005 C80.6977301,19.6332291 80.3396697,20.3476529 80.125,21.11 C79.8666866,22.017067 79.7420416,22.9569579 79.755,23.9 C79.742629,24.8462944 79.8672537,25.7893996 80.125,26.7 C80.3402781,27.4663447 80.6944885,28.1866289 81.17,28.825 C81.6069097,29.3983636 82.1697233,29.8636685 82.815,30.185 C83.4855427,30.5195406 84.2256599,30.690864 84.975,30.685 C85.6763146,30.699508 86.370836,30.5451699 87,30.235 C87.6449977,29.8873346 88.2184109,29.4208002 88.69,28.86 L89.295,29.51 C88.762613,30.1406952 88.1185156,30.6678381 87.395,31.065 C86.6220795,31.4595779 85.7624844,31.6538464 84.895,31.63 C84.0320203,31.636768 83.1782494,31.4523535 82.395,31.09 C81.6307464,30.7315606 80.9573238,30.2051288 80.425,29.55 C79.8490379,28.8278838 79.4147491,28.0034136 79.145,27.12 C78.8249841,26.0755491 78.6714368,24.9872194 78.69,23.895 L78.69,23.895 Z" id="Path" fill="#FFFFFF"></path>
                <polygon id="Path" fill="#FFFFFF" points="95.41 16.515 96.47 16.515 96.47 24.75 96.515 24.75 103.83 16.515 105.045 16.515 100.255 22.015 105.675 31.35 104.485 31.35 99.535 22.8 96.475 26.24 96.475 31.345 95.415 31.345"></polygon>
                <path d="M110.235,16.63 L112.89,16.63 L116.83,24.93 L118.2,28.055 L118.27,28.055 C118.21,27.2916667 118.135,26.47 118.045,25.59 C117.95655,24.7411856 117.911492,23.8884091 117.91,23.035 L117.91,16.63 L120.41,16.63 L120.41,31.345 L117.755,31.345 L113.82,23.04 L112.44,19.93 L112.37,19.93 C112.43,20.71 112.505,21.5266667 112.595,22.38 C112.683267,23.2104329 112.728327,24.044891 112.73,24.88 L112.73,31.315 L110.23,31.315 L110.235,16.63 Z" id="Path" fill="#FFFFFF"></path>
                <polygon id="Path" fill="#FFFFFF" points="126.21 29.14 129.765 29.14 129.765 18.835 126.21 18.835 126.21 16.63 135.93 16.63 135.93 18.835 132.375 18.835 132.375 29.14 135.93 29.14 135.93 31.345 126.21 31.345"></polygon>
                <polygon id="Path" fill="#FFFFFF" points="141.94 16.63 144.575 16.63 144.575 23.31 144.64 23.31 149.885 16.63 152.785 16.63 148.285 22.37 153.285 31.37 150.38 31.37 146.71 24.43 144.575 27.065 144.575 31.36 141.94 31.36"></polygon>
                <path d="M8.21,0.53 L8.21,43.755 C8.21,46.0221289 6.3721289,47.86 4.105,47.86 C1.8378711,47.86 0,46.0221289 0,43.755 L0,5.305 C0,2.37903021 2.3690354,0.00551549442 5.295,2.84217094e-14 C5.69546193,2.84217094e-14 6.09461494,0.0457281722 6.485,0.135 L8.21,0.53 Z" id="Path" fill="#04E79F"></path>
                <path d="M30.24,17.65 L27.165,25.2 C25.2470416,29.9797158 20.7970878,33.2688122 15.665,33.7 L23.235,16.315 L30.24,17.65 Z" id="Path" fill="#04E79F"></path>
                <path d="M32.335,12.485 L31.835,13.73 L21.92,11.795 L12.375,9.825 L12.375,1.48 L28.64,5.205 C30.177276,5.5558178 31.4782215,6.57351157 32.1887955,7.98112487 C32.8993695,9.38873817 32.9456346,11.0398043 32.315,12.485 L32.335,12.485 Z" id="Path" fill="#04E79F"></path>
                <path d="M18.11,18.43 C18.11,20.0150572 16.8250572,21.3 15.24,21.3 C13.6549428,21.3 12.37,20.0150572 12.37,18.43 C12.37,16.8449428 13.6549428,15.56 15.24,15.56 C16.8239158,15.5627522 18.1072478,16.8460842 18.11,18.43 L18.11,18.43 Z" id="Path" fill="#04E79F"></path>
            </g>
        </g>
    </g>
</svg>