<?xml version="1.0" encoding="UTF-8"?>
<svg width="365px" height="309px" viewBox="0 0 365 309" version="1.1" xmlns="http://www.w3.org/2000/svg" xmlns:xlink="http://www.w3.org/1999/xlink">
    <!-- Generator: Sketch 54.1 (76490) - https://sketchapp.com -->
    <title>Group 6</title>
    <desc>Created with Sketch.</desc>
    <g id="1.-Desktop" stroke="none" stroke-width="1" fill="none" fill-rule="evenodd">
        <g id="04-PickNik--Support" transform="translate(-1024.000000, -728.000000)">
            <g id="Group-6" transform="translate(1024.000000, 727.997987)">
                <circle id="Oval" fill="#04E79F" opacity="0.304827009" cx="60" cy="175.002013" r="60"></circle>
                <circle id="Oval-Copy-5" fill="#04E79F" cx="60" cy="175.002013" r="35"></circle>
                <path d="M347.789397,253.267419 L347.789397,249.267419 L279.431674,249.267419 L279.431674,253.267419 L279.431674,301.682774 L347.789397,301.682774 L347.789397,253.267419 Z M271.504166,253.267419 L271.504166,249.267419 L202.793212,249.267419 L202.793212,253.267419 L202.793212,301.682774 L271.504166,301.682774 L271.504166,253.267419 Z M77.25752,90.161871 C77.25752,95.8734839 81.9201662,100.52329 87.6500738,100.52329 C93.3799815,100.52329 98.0426277,95.8734839 98.0426277,90.161871 C98.0426277,84.4452258 93.3799815,79.7979355 87.6500738,79.7979355 C81.9201662,79.7979355 77.25752,84.4452258 77.25752,90.161871 Z M200.593089,242.259355 L350.342751,242.259355 C354.362012,242.259355 357.63192,238.998452 357.63192,234.990258 C357.63192,230.984581 354.362012,227.721161 350.342751,227.721161 L200.593089,227.721161 C196.573828,227.721161 193.30392,230.984581 193.30392,234.990258 C193.30392,238.998452 196.573828,242.259355 200.593089,242.259355 Z M213.952782,219.669548 L328.772966,219.669548 L328.772966,212.868452 L213.952782,212.868452 L213.952782,219.669548 Z M192.423366,63.1285806 L230.413335,101.013935 C232.590751,98.0776129 235.060843,95.3803226 237.788289,92.9522581 L202.417274,56.8684516 C199.50312,59.5053548 196.134812,61.6440645 192.423366,63.1285806 Z M154.774012,32.2632258 C154.774012,46.1648387 166.117766,57.4748387 180.057766,57.4748387 C193.995243,57.4748387 205.338997,46.1648387 205.338997,32.2632258 C205.338997,18.3616129 193.995243,7.0516129 180.057766,7.0516129 C166.117766,7.0516129 154.774012,18.3616129 154.774012,32.2632258 Z M120.011058,82.2587097 L160.715858,59.3090968 C157.708351,57.1653548 155.076782,54.5410323 152.92712,51.5392903 L115.953951,72.6496129 C117.783182,75.5834194 119.163305,78.8116129 120.011058,82.2587097 Z M62.36632,90.161871 C62.36632,104.060968 73.7100738,115.370968 87.6500738,115.370968 C101.587551,115.370968 112.931305,104.060968 112.931305,90.161871 C112.931305,76.2577419 101.587551,64.9477419 87.6500738,64.9477419 C73.7100738,64.9477419 62.36632,76.2577419 62.36632,90.161871 Z M79.6998585,138.972258 L83.7140738,123.168452 C75.1129046,122.154452 67.5133969,117.874516 62.1871815,111.59929 L57.1637354,134.030581 L79.6998585,138.972258 Z M79.2759815,154.534516 L80.7116123,148.017742 L51.7315508,141.662 L50.2933969,148.176258 L79.2759815,154.534516 Z M146.831366,34.7969677 L102.838997,60.5847742 C105.828843,62.1170968 108.561335,64.0771613 110.94312,66.3970323 L149.109705,44.6048387 C147.873397,41.5351613 147.096289,38.2390323 146.831366,34.7969677 Z M256.206751,82.2687742 L212.322874,40.5312258 C211.356535,44.2802581 209.784658,47.7877419 207.660228,50.9052258 L244.118689,88.096129 C247.85032,85.6680645 251.907428,83.7029677 256.206751,82.2687742 Z M268.829705,204.819355 L268.955858,184.909226 C256.037705,183.940516 244.391182,178.374839 235.709274,169.792323 L235.709274,204.819355 L268.829705,204.819355 Z M305.666628,204.819355 L305.666628,173.737613 C297.623058,180.07071 287.707366,184.111613 276.885889,184.911742 L276.759735,204.819355 L305.666628,204.819355 Z M317.81272,132.317097 C317.81272,107.643935 297.683612,87.5727742 272.944843,87.5727742 C248.206074,87.5727742 228.076966,107.643935 228.076966,132.317097 C228.076966,156.987742 248.206074,177.061419 272.944843,177.061419 C297.683612,177.061419 317.81272,156.987742 317.81272,132.317097 Z M169.665212,32.2632258 C169.665212,37.9773548 174.327858,42.6246452 180.057766,42.6246452 C185.787674,42.6246452 190.447797,37.9773548 190.447797,32.2632258 C190.447797,26.5490968 185.787674,21.8992903 180.057766,21.8992903 C174.327858,21.8992903 169.665212,26.5490968 169.665212,32.2632258 Z M295.117643,132.317097 C295.117643,120.123935 285.169151,110.205355 272.944843,110.205355 C260.720535,110.205355 250.772043,120.123935 250.772043,132.317097 C250.772043,144.507742 260.720535,154.428839 272.944843,154.428839 C285.169151,154.428839 295.117643,144.507742 295.117643,132.317097 Z M87.6500738,73.632 C96.792067,73.632 104.228351,81.0478062 104.228351,90.161871 C104.228351,99.2737869 96.7916984,106.689226 87.6500738,106.689226 C78.5084493,106.689226 71.0717969,99.2737869 71.0717969,90.161871 C71.0717969,81.0478062 78.5080807,73.632 87.6500738,73.632 Z M354.719428,248.628879 L354.719428,308.590968 L195.863182,308.590968 L195.863182,248.518435 L195.236689,248.266179 C189.844325,246.094953 186.232597,240.870369 186.232597,234.990258 C186.232597,227.095622 192.673162,220.672065 200.593089,220.672065 L206.878935,220.672065 L206.878935,205.819355 L228.779243,205.819355 L228.779243,159.433411 L228.63209,159.193065 C223.673658,151.094431 221.005643,141.885783 221.005643,132.317097 C221.005643,123.8763 223.066773,115.710307 226.950905,108.333782 L227.294675,107.680914 L183.812762,64.3110382 L183.342425,64.3577302 C182.233249,64.4678418 181.14007,64.5239355 180.057766,64.5239355 C176.455333,64.5239355 172.899282,63.9024515 169.45508,62.7095251 L169.029262,62.5620399 L119.981036,90.212954 L119.970014,90.7841919 C119.661483,106.773924 107.584396,120.105349 91.7796732,122.126205 L91.1046803,122.212512 L86.2274575,141.425318 L89.813901,142.214752 L85.0971459,163.614583 L78.7002618,162.211734 L67.8531731,189.796018 L63.6499898,188.601445 L70.0009825,160.302382 L56.1020854,157.253747 L49.1609345,185.541401 L44.8613343,184.749597 L47.4170774,155.349 L41.1912438,153.98136 L45.9079088,132.586549 L50.1812553,133.521834 L57.3710515,101.421823 L57.2703946,101.146317 C55.971914,97.5922703 55.2949969,93.9049236 55.2949969,90.161871 C55.2949969,72.3721933 69.8085115,57.8986452 87.6500738,57.8986452 C89.2008089,57.8986452 90.7965088,58.0405676 92.5945929,58.3172689 L92.9458,58.371315 L148.346914,25.8988409 L148.439626,25.4693036 C151.621372,10.7280422 164.762659,-1.13686838e-13 180.057766,-1.13686838e-13 C197.262601,-1.13686838e-13 211.448512,13.5168703 212.325851,30.6060455 L212.346304,31.0044376 L265.095635,81.176085 L265.575392,81.1073866 C268.283039,80.7196668 270.646652,80.5211613 272.944843,80.5211613 C301.585558,80.5211613 324.884043,103.756253 324.884043,132.317097 C324.884043,144.573638 320.571138,156.18635 312.829601,165.44197 L312.596658,165.720471 L312.596658,205.819355 L335.844289,205.819355 L335.844289,220.672065 L350.342751,220.672065 C358.262678,220.672065 364.703243,227.095622 364.703243,234.990258 C364.703243,240.995201 360.936711,246.299788 355.36862,248.385682 L354.719428,248.628879 Z M180.057766,15.7333548 C189.197605,15.7333548 196.63352,23.1495284 196.63352,32.2632258 C196.63352,41.3747744 189.197236,48.7905806 180.057766,48.7905806 C170.916142,48.7905806 163.479489,41.3751417 163.479489,32.2632258 C163.479489,23.149161 170.915773,15.7333548 180.057766,15.7333548 Z M272.944843,161.477935 C256.818973,161.477935 243.70072,148.395807 243.70072,132.317097 C243.70072,116.236247 256.818595,103.153742 272.944843,103.153742 C289.071091,103.153742 302.188966,116.236247 302.188966,132.317097 C302.188966,148.395807 289.070713,161.477935 272.944843,161.477935 Z" id="Combined-Shape" fill="#3C4A69"></path>
            </g>
        </g>
    </g>
</svg>