<?xml version="1.0" encoding="UTF-8"?>
<svg width="193px" height="189px" viewBox="1.5 53 132.76258850097656 136" version="1.1" xmlns="http://www.w3.org/2000/svg" xmlns:xlink="http://www.w3.org/1999/xlink">
    <!-- Generator: Sketch 54.1 (76490) - https://sketchapp.com -->
    <title>Group 5</title>
    <desc>Created with Sketch.</desc>
    <defs>
        <path d="M100,17.1315464 C100,7.67002831 107.669611,-2.13162821e-14 117.131976,-2.13162821e-14 C126.592979,-2.13162821e-14 134.26259,7.67002831 134.26259,17.1315464 C134.26259,26.5930644 126.592979,34.2644551 117.131976,34.2644551 C107.669611,34.2644551 100,26.5930644 100,17.1315464" id="path-1"></path>
        <filter x="-284.6%" y="-267.0%" width="669.1%" height="669.1%" filterUnits="objectBoundingBox" id="filter-2">
            <feOffset dx="0" dy="6" in="SourceAlpha" result="shadowOffsetOuter1"></feOffset>
            <feGaussianBlur stdDeviation="31.5" in="shadowOffsetOuter1" result="shadowBlurOuter1"></feGaussianBlur>
            <feColorMatrix values="0 0 0 0 0.0754548834   0 0 0 0 0.096736573   0 0 0 0 0.145380435  0 0 0 0.12 0" type="matrix" in="shadowBlurOuter1"></feColorMatrix>
        </filter>
    </defs>
    <g stroke="none" stroke-width="1" fill="none" fill-rule="evenodd">
        <g id="01-PickNik-Services-v1-Copy" transform="translate(-284.000000, -540.000000)">
            <g id="Group-5" transform="translate(284.000000, 593.000000)">
                <rect id="Rectangle" stroke="#ECEFF6" stroke-width="3" x="1.5" y="17.5" width="117" height="117" rx="16"></rect>
                <path d="M82.1896337,86.0101816 C82.1896337,87.4002787 81.0601542,88.529597 79.6716892,88.529597 C78.2848463,88.529597 77.1559075,87.4002787 77.1559075,86.0101816 L77.1559075,71.5231366 C77.1559075,70.1335817 78.2848463,69.0010104 79.6716892,69.0010104 C81.0601542,69.0010104 82.1896337,70.1335817 82.1896337,71.5231366 L82.1896337,86.0101816 Z M79.6716892,67.626636 C77.5305984,67.626636 75.7858256,69.3761848 75.7858256,71.5231366 L75.7858256,86.0101816 C75.7858256,88.1571334 77.5305984,89.9039714 79.6716892,89.9039714 C81.8149428,89.9039714 83.5597156,88.1571334 83.5597156,86.0101816 L83.5597156,71.5231366 C83.5597156,69.3761848 81.8149428,67.626636 79.6716892,67.626636 L79.6716892,67.626636 Z M78.9866483,82.0708504 L80.3561895,82.0708504 L80.3561895,71.514462 L78.9866483,71.514462 L78.9866483,82.0708504 Z M78.9866483,86.3327665 L80.3561895,86.3327665 L80.3561895,83.6008246 L78.9866483,83.6008246 L78.9866483,86.3327665 Z M76.8185234,58.2163728 C74.9856199,58.2163728 73.4955072,56.7221811 73.4955072,54.8837182 C73.4955072,53.0457973 74.9856199,51.5505213 76.8185234,51.5505213 C78.6492643,51.5505213 80.1399177,53.0457973 80.1399177,54.8837182 C80.1399177,56.7221811 78.6492643,58.2163728 76.8185234,58.2163728 L76.8185234,58.2163728 Z M76.8185234,50.176689 C74.2308313,50.176689 72.1254253,52.2889426 72.1254253,54.8837182 C72.1254253,57.4784937 74.2308313,59.5902051 76.8185234,59.5902051 C79.4067563,59.5902051 81.5099996,57.4784937 81.5099996,54.8837182 C81.5099996,52.2889426 79.4067563,50.176689 76.8185234,50.176689 L76.8185234,50.176689 Z M43.0130777,72.7522122 L40.1680221,75.8728825 L41.1796335,76.7983489 L44.0241484,73.6776786 L43.0130777,72.7522122 Z M45.66457,75.1832556 L42.8205958,78.3012151 L43.8316665,79.2293923 L46.6761814,76.1114327 L45.66457,75.1832556 Z M68.5553185,101.380947 C66.7754015,101.380947 65.3258398,99.9290434 65.3258398,98.1447964 C65.3258398,96.3600072 66.7754015,94.908104 68.5553185,94.908104 C70.3373981,94.908104 71.7853379,96.3600072 71.7853379,98.1447964 C71.7853379,99.9290434 70.3373981,101.380947 68.5553185,101.380947 L68.5553185,101.380947 Z M68.5553185,93.5342717 C66.0189909,93.5342717 63.9552172,95.6004417 63.9552172,98.1447964 C63.9552172,100.685356 66.0189909,102.754779 68.5553185,102.754779 C71.0921867,102.754779 73.1554198,100.685356 73.1554198,98.1447964 C73.1554198,95.6004417 71.0921867,93.5342717 68.5553185,93.5342717 L68.5553185,93.5342717 Z M45.5175052,80.7750891 L46.5291166,81.7010976 L49.3709281,78.5804273 L48.3598574,77.6544188 L45.5175052,80.7750891 Z M76.8185234,65.1099314 C71.1965379,65.1099314 66.6207672,60.5238038 66.6207672,54.8837182 C66.6207672,49.2458011 71.1965379,44.6575049 76.8185234,44.6575049 C82.4410497,44.6575049 87.0146576,49.2458011 87.0146576,54.8837182 C87.0146576,60.5238038 82.4410497,65.1099314 76.8185234,65.1099314 L76.8185234,65.1099314 Z M81.6603085,102.032622 C79.9604121,103.780545 77.7771482,104.85131 75.1597187,105.243291 C77.0542597,103.466634 78.2507835,100.946135 78.2507835,98.1447964 C78.2507835,94.4022691 76.1286164,91.1525648 73.0299821,89.5277127 L73.0321448,89.5250019 L67.6961787,86.2823457 L67.6961787,61.9919719 C69.8156424,64.7190343 73.1127061,66.4837636 76.8185234,66.4837636 C80.4713542,66.4837636 83.7289483,64.7727081 85.8505747,62.1128734 L85.8505747,90.1295098 C85.8532781,90.2043278 85.9922327,97.5755289 81.6603085,102.032622 L81.6603085,102.032622 Z M68.5553185,106.494595 C63.9660308,106.494595 60.2331795,102.748815 60.2331795,98.1447964 C60.2331795,93.5402354 63.9660308,89.7960817 68.5553185,89.7960817 C73.1446062,89.7960817 76.8807016,93.5402354 76.8807016,98.1447964 C76.8807016,102.748815 73.1446062,106.494595 68.5553185,106.494595 L68.5553185,106.494595 Z M55.20486,96.036338 L64.439666,85.9071713 L68.576405,88.4238759 C68.5715389,88.4238759 68.5634287,88.4222494 68.5553185,88.4222494 C63.2112422,88.4222494 58.8625569,92.7833807 58.8625569,98.1447964 C58.8625569,98.8111105 58.9296012,99.4606176 59.0582829,100.089523 L55.20486,96.036338 Z M49.6336983,90.8673889 L58.752799,80.8640033 L63.3474934,85.0711613 L54.2251487,95.0777999 L49.6336983,90.8673889 Z M46.4966758,86.5268596 C47.6531893,85.9364479 48.7448212,85.117787 49.6758713,84.0974428 L50.6344961,83.0424003 L52.9648248,85.1785089 L49.3498416,89.1400686 L46.4966758,86.5268596 Z M42.4588812,86.1901786 C41.1342164,86.1874678 39.9728368,85.7662098 39.1007208,84.9638137 L28.6612808,75.39524 L41.9960596,60.765607 L52.4322555,70.3314699 C53.5644384,71.3675368 54.1024145,72.9289562 53.954809,74.7321789 C53.8807359,75.6343323 53.6314826,76.5397388 53.2432747,77.4126156 L45.5764393,70.3851437 C43.6202608,68.5954751 40.5805606,68.7320993 38.7930741,70.6909217 L37.7441559,71.8446372 C35.9588321,73.8034596 36.0956241,76.8547335 38.0485585,78.6444021 L45.5066916,85.4815761 C44.5064345,85.9364479 43.4683299,86.1901786 42.4588812,86.1901786 L42.4588812,86.1901786 Z M20.1061089,65.2151103 C19.5232564,64.680541 19.4821647,63.7686287 20.0152747,63.1830964 C20.2748009,62.8990048 20.6284053,62.7320196 21.0106657,62.716297 C21.3961702,62.692442 21.7573441,62.831777 22.0439043,63.0893028 L30.7483037,71.069349 L28.811049,73.1962409 L20.1061089,65.2151103 Z M22.8787134,60.0412818 C23.4112827,59.4568339 24.3212464,59.4134611 24.9046396,59.9480304 C24.9046396,59.9485726 24.907343,59.9491147 24.907343,59.950199 L33.609039,67.9307875 L31.6717843,70.0555107 L22.9668442,62.0754644 C22.6829874,61.8173965 22.5202429,61.4633663 22.5007784,61.0795174 C22.4850987,60.6956684 22.6186466,60.3253734 22.8787134,60.0412818 L22.8787134,60.0412818 Z M25.7394487,56.901636 C25.9989749,56.6170022 26.354742,56.4511014 26.7370024,56.4342944 C27.0960136,56.4104394 27.4836808,56.5470636 27.7680782,56.8078424 L27.7945715,56.7769393 C27.7945715,56.7774814 27.7967343,56.7774814 27.7967343,56.7774814 L36.5022151,64.7591542 L34.535223,66.9153226 L25.8302829,58.9331077 C25.5491295,58.6750398 25.3836816,58.3237204 25.3642171,57.9404136 C25.3485374,57.5538539 25.4793819,57.1862697 25.7394487,56.901636 L25.7394487,56.901636 Z M28.62884,53.7300027 C29.1646534,53.1450125 30.0740764,53.1048927 30.6601729,53.6383777 L39.3656537,61.6189661 L37.425155,63.745858 L28.7202149,55.7636431 C28.4363581,55.5061173 28.2709102,55.1520871 28.2546898,54.7682382 C28.2363067,54.3843892 28.3698545,54.0168051 28.62884,53.7300027 L28.62884,53.7300027 Z M44.7578505,54.1377066 C45.1455177,53.6009687 45.7153939,53.2496493 46.3658314,53.1423017 C47.0130247,53.0398336 47.6715724,53.1905539 48.2095485,53.5798245 C48.7448212,53.9663842 49.0984256,54.5372782 49.2022361,55.1922069 L51.1638213,67.3078461 L45.2790655,61.9128166 L44.3215221,55.9864707 C44.2144676,55.3320841 44.3696426,54.6744446 44.7578505,54.1377066 L44.7578505,54.1377066 Z M51.5093155,80.0453424 L48.66426,83.1687235 C48.092221,83.7981707 47.4471904,84.3316557 46.769719,84.7800216 L38.9720391,77.6305638 C37.5776266,76.3505251 37.4792229,74.1710438 38.7552266,72.7706457 L39.8041448,71.619641 C41.0779858,70.2192429 43.2558428,70.1194855 44.6534994,71.4000663 L52.566344,78.6525345 C52.255994,79.1361408 51.9104997,79.605651 51.5093155,80.0453424 L51.5093155,80.0453424 Z M57.0399263,80.706777 L53.8883054,84.1630441 L51.5601394,82.0269355 L52.5209269,80.9708087 C53.283285,80.1364252 53.8910088,79.2109588 54.3559932,78.2448305 L57.0399263,80.706777 Z M87.2206565,59.9252597 C87.9592248,58.3979963 88.3847395,56.6923624 88.3847395,54.8837182 C88.3847395,48.4894886 83.1958383,43.2836727 76.8185234,43.2836727 C70.4395866,43.2836727 65.2506853,48.4894886 65.2506853,54.8837182 C65.2506853,56.6186287 65.6437593,58.2592034 66.3260969,59.7382147 L66.3260969,85.4485043 L64.731633,84.4796652 L58.6673716,78.9236143 L57.9666509,79.6923965 L54.8918066,76.8709983 C55.0999682,76.2014312 55.2637941,75.5253583 55.3200247,74.8449481 C55.5049371,72.6096243 54.8085419,70.6480911 53.3584395,69.3176316 L52.7934294,68.8004114 L50.5539349,54.9726323 C50.3906496,53.9577097 49.8424006,53.0642307 49.0097542,52.463518 C48.1776484,51.862263 47.1606302,51.6231707 46.1495596,51.7869029 C45.1352448,51.9511772 44.2490711,52.497674 43.6472948,53.3331419 C43.0455185,54.169694 42.8038348,55.1894961 42.9698234,56.2060453 L43.6499982,60.4202514 L41.9100915,58.825218 L40.2885937,60.6056699 L31.5836535,52.6245394 C30.4379537,51.5803401 28.6585774,51.6611219 27.6177693,52.8039942 C27.112234,53.3591655 26.8521672,54.0791534 26.8846079,54.8300444 C26.8900147,54.9129948 26.9089385,54.9910657 26.9192114,55.0723897 C26.8391908,55.0696789 26.7586296,55.0561249 26.6759056,55.0610043 C25.9265238,55.0957025 25.2333727,55.4204561 24.7278374,55.9761696 C24.2217613,56.531341 23.9627758,57.2502445 23.9968387,58.0016777 C24.0000827,58.074327 24.0184658,58.1426391 24.026576,58.213662 C23.2371839,58.1892649 22.4423851,58.4836575 21.8698055,59.1131047 C21.361026,59.6677339 21.0993372,60.3871796 21.1339406,61.1413236 C21.136644,61.2123465 21.1550271,61.2801164 21.1631373,61.3505971 C21.0906863,61.3495128 21.0214793,61.3370431 20.9490283,61.3424647 C20.2001871,61.377163 19.5091987,61.7019165 19.0036634,62.2549192 C17.9601519,63.4005024 18.0401725,65.1825808 19.1804656,66.2289487 L27.8854057,74.2106214 L26.7267295,75.4809012 L38.1745368,85.9781942 C39.3040163,87.0142611 40.7865595,87.5613 42.4588812,87.5640108 C43.3342413,87.5640108 44.2279846,87.4002787 45.102804,87.109139 L48.426361,90.1549913 L47.6986064,90.9530501 L53.7866576,96.5356669 L60.6478806,103.755063 L60.650584,103.754521 C62.4083331,106.239238 65.293399,107.86897 68.5553185,107.86897 C70.1481603,107.86897 71.6490866,107.474278 72.9759142,106.788446 C76.9688323,106.75429 80.2226416,105.480757 82.6421824,102.990618 C87.3731282,98.12311 87.2282261,90.419023 87.2206565,90.1127028 L87.2206565,59.9252597 Z" id="Fill-1" fill="#3C4A69"></path>
                <path d="M82.1896337,86.0101816 C82.1896337,87.4002787 81.0601542,88.529597 79.6716892,88.529597 C78.2848463,88.529597 77.1559075,87.4002787 77.1559075,86.0101816 L77.1559075,71.5231366 C77.1559075,70.1335817 78.2848463,69.0010104 79.6716892,69.0010104 C81.0601542,69.0010104 82.1896337,70.1335817 82.1896337,71.5231366 L82.1896337,86.0101816 Z M79.6716892,67.626636 C77.5305984,67.626636 75.7858256,69.3761848 75.7858256,71.5231366 L75.7858256,86.0101816 C75.7858256,88.1571334 77.5305984,89.9039714 79.6716892,89.9039714 C81.8149428,89.9039714 83.5597156,88.1571334 83.5597156,86.0101816 L83.5597156,71.5231366 C83.5597156,69.3761848 81.8149428,67.626636 79.6716892,67.626636 Z M78.9866483,82.0708504 L80.3561895,82.0708504 L80.3561895,71.514462 L78.9866483,71.514462 L78.9866483,82.0708504 Z M78.9866483,86.3327665 L80.3561895,86.3327665 L80.3561895,83.6008246 L78.9866483,83.6008246 L78.9866483,86.3327665 Z M76.8185234,58.2163728 C74.9856199,58.2163728 73.4955072,56.7221811 73.4955072,54.8837182 C73.4955072,53.0457973 74.9856199,51.5505213 76.8185234,51.5505213 C78.6492643,51.5505213 80.1399177,53.0457973 80.1399177,54.8837182 C80.1399177,56.7221811 78.6492643,58.2163728 76.8185234,58.2163728 Z M76.8185234,50.176689 C74.2308313,50.176689 72.1254253,52.2889426 72.1254253,54.8837182 C72.1254253,57.4784937 74.2308313,59.5902051 76.8185234,59.5902051 C79.4067563,59.5902051 81.5099996,57.4784937 81.5099996,54.8837182 C81.5099996,52.2889426 79.4067563,50.176689 76.8185234,50.176689 Z M43.0130777,72.7522122 L40.1680221,75.8728825 L41.1796335,76.7983489 L44.0241484,73.6776786 L43.0130777,72.7522122 Z M45.66457,75.1832556 L42.8205958,78.3012151 L43.8316665,79.2293923 L46.6761814,76.1114327 L45.66457,75.1832556 Z M68.5553185,101.380947 C66.7754015,101.380947 65.3258398,99.9290434 65.3258398,98.1447964 C65.3258398,96.3600072 66.7754015,94.908104 68.5553185,94.908104 C70.3373981,94.908104 71.7853379,96.3600072 71.7853379,98.1447964 C71.7853379,99.9290434 70.3373981,101.380947 68.5553185,101.380947 Z M68.5553185,93.5342717 C66.0189909,93.5342717 63.9552172,95.6004417 63.9552172,98.1447964 C63.9552172,100.685356 66.0189909,102.754779 68.5553185,102.754779 C71.0921867,102.754779 73.1554198,100.685356 73.1554198,98.1447964 C73.1554198,95.6004417 71.0921867,93.5342717 68.5553185,93.5342717 Z M45.5175052,80.7750891 L46.5291166,81.7010976 L49.3709281,78.5804273 L48.3598574,77.6544188 L45.5175052,80.7750891 Z M76.8185234,65.1099314 C71.1965379,65.1099314 66.6207672,60.5238038 66.6207672,54.8837182 C66.6207672,49.2458011 71.1965379,44.6575049 76.8185234,44.6575049 C82.4410497,44.6575049 87.0146576,49.2458011 87.0146576,54.8837182 C87.0146576,60.5238038 82.4410497,65.1099314 76.8185234,65.1099314 Z M81.6603085,102.032622 C79.9604121,103.780545 77.7771482,104.85131 75.1597187,105.243291 C77.0542597,103.466634 78.2507835,100.946135 78.2507835,98.1447964 C78.2507835,94.4022691 76.1286164,91.1525648 73.0299821,89.5277127 L73.0321448,89.5250019 L67.6961787,86.2823457 L67.6961787,61.9919719 C69.8156424,64.7190343 73.1127061,66.4837636 76.8185234,66.4837636 C80.4713542,66.4837636 83.7289483,64.7727081 85.8505747,62.1128734 L85.8505747,90.1295098 C85.8532781,90.2043278 85.9922327,97.5755289 81.6603085,102.032622 Z M68.5553185,106.494595 C63.9660308,106.494595 60.2331795,102.748815 60.2331795,98.1447964 C60.2331795,93.5402354 63.9660308,89.7960817 68.5553185,89.7960817 C73.1446062,89.7960817 76.8807016,93.5402354 76.8807016,98.1447964 C76.8807016,102.748815 73.1446062,106.494595 68.5553185,106.494595 Z M55.20486,96.036338 L64.439666,85.9071713 L68.576405,88.4238759 C68.5715389,88.4238759 68.5634287,88.4222494 68.5553185,88.4222494 C63.2112422,88.4222494 58.8625569,92.7833807 58.8625569,98.1447964 C58.8625569,98.8111105 58.9296012,99.4606176 59.0582829,100.089523 L55.20486,96.036338 Z M49.6336983,90.8673889 L58.752799,80.8640033 L63.3474934,85.0711613 L54.2251487,95.0777999 L49.6336983,90.8673889 Z M46.4966758,86.5268596 C47.6531893,85.9364479 48.7448212,85.117787 49.6758713,84.0974428 L50.6344961,83.0424003 L52.9648248,85.1785089 L49.3498416,89.1400686 L46.4966758,86.5268596 Z M42.4588812,86.1901786 C41.1342164,86.1874678 39.9728368,85.7662098 39.1007208,84.9638137 L28.6612808,75.39524 L41.9960596,60.765607 L52.4322555,70.3314699 C53.5644384,71.3675368 54.1024145,72.9289562 53.954809,74.7321789 C53.8807359,75.6343323 53.6314826,76.5397388 53.2432747,77.4126156 L45.5764393,70.3851437 C43.6202608,68.5954751 40.5805606,68.7320993 38.7930741,70.6909217 L37.7441559,71.8446372 C35.9588321,73.8034596 36.0956241,76.8547335 38.0485585,78.6444021 L45.5066916,85.4815761 C44.5064345,85.9364479 43.4683299,86.1901786 42.4588812,86.1901786 Z M20.1061089,65.2151103 C19.5232564,64.680541 19.4821647,63.7686287 20.0152747,63.1830964 C20.2748009,62.8990048 20.6284053,62.7320196 21.0106657,62.716297 C21.3961702,62.692442 21.7573441,62.831777 22.0439043,63.0893028 L30.7483037,71.069349 L28.811049,73.1962409 L20.1061089,65.2151103 Z M22.8787134,60.0412818 C23.4112827,59.4568339 24.3212464,59.4134611 24.9046396,59.9480304 C24.9046396,59.9485726 24.907343,59.9491147 24.907343,59.950199 L33.609039,67.9307875 L31.6717843,70.0555107 L22.9668442,62.0754644 C22.6829874,61.8173965 22.5202429,61.4633663 22.5007784,61.0795174 C22.4850987,60.6956684 22.6186466,60.3253734 22.8787134,60.0412818 Z M25.7394487,56.901636 C25.9989749,56.6170022 26.354742,56.4511014 26.7370024,56.4342944 C27.0960136,56.4104394 27.4836808,56.5470636 27.7680782,56.8078424 L27.7945715,56.7769393 C27.7945715,56.7774814 27.7967343,56.7774814 27.7967343,56.7774814 L36.5022151,64.7591542 L34.535223,66.9153226 L25.8302829,58.9331077 C25.5491295,58.6750398 25.3836816,58.3237204 25.3642171,57.9404136 C25.3485374,57.5538539 25.4793819,57.1862697 25.7394487,56.901636 Z M28.62884,53.7300027 C29.1646534,53.1450125 30.0740764,53.1048927 30.6601729,53.6383777 L39.3656537,61.6189661 L37.425155,63.745858 L28.7202149,55.7636431 C28.4363581,55.5061173 28.2709102,55.1520871 28.2546898,54.7682382 C28.2363067,54.3843892 28.3698545,54.0168051 28.62884,53.7300027 Z M44.7578505,54.1377066 C45.1455177,53.6009687 45.7153939,53.2496493 46.3658314,53.1423017 C47.0130247,53.0398336 47.6715724,53.1905539 48.2095485,53.5798245 C48.7448212,53.9663842 49.0984256,54.5372782 49.2022361,55.1922069 L51.1638213,67.3078461 L45.2790655,61.9128166 L44.3215221,55.9864707 C44.2144676,55.3320841 44.3696426,54.6744446 44.7578505,54.1377066 Z M51.5093155,80.0453424 L48.66426,83.1687235 C48.092221,83.7981707 47.4471904,84.3316557 46.769719,84.7800216 L38.9720391,77.6305638 C37.5776266,76.3505251 37.4792229,74.1710438 38.7552266,72.7706457 L39.8041448,71.619641 C41.0779858,70.2192429 43.2558428,70.1194855 44.6534994,71.4000663 L52.566344,78.6525345 C52.255994,79.1361408 51.9104997,79.605651 51.5093155,80.0453424 Z M57.0399263,80.706777 L53.8883054,84.1630441 L51.5601394,82.0269355 L52.5209269,80.9708087 C53.283285,80.1364252 53.8910088,79.2109588 54.3559932,78.2448305 L57.0399263,80.706777 Z M87.2206565,59.9252597 C87.9592248,58.3979963 88.3847395,56.6923624 88.3847395,54.8837182 C88.3847395,48.4894886 83.1958383,43.2836727 76.8185234,43.2836727 C70.4395866,43.2836727 65.2506853,48.4894886 65.2506853,54.8837182 C65.2506853,56.6186287 65.6437593,58.2592034 66.3260969,59.7382147 L66.3260969,85.4485043 L64.731633,84.4796652 L58.6673716,78.9236143 L57.9666509,79.6923965 L54.8918066,76.8709983 C55.0999682,76.2014312 55.2637941,75.5253583 55.3200247,74.8449481 C55.5049371,72.6096243 54.8085419,70.6480911 53.3584395,69.3176316 L52.7934294,68.8004114 L50.5539349,54.9726323 C50.3906496,53.9577097 49.8424006,53.0642307 49.0097542,52.463518 C48.1776484,51.862263 47.1606302,51.6231707 46.1495596,51.7869029 C45.1352448,51.9511772 44.2490711,52.497674 43.6472948,53.3331419 C43.0455185,54.169694 42.8038348,55.1894961 42.9698234,56.2060453 L43.6499982,60.4202514 L41.9100915,58.825218 L40.2885937,60.6056699 L31.5836535,52.6245394 C30.4379537,51.5803401 28.6585774,51.6611219 27.6177693,52.8039942 C27.112234,53.3591655 26.8521672,54.0791534 26.8846079,54.8300444 C26.8900147,54.9129948 26.9089385,54.9910657 26.9192114,55.0723897 C26.8391908,55.0696789 26.7586296,55.0561249 26.6759056,55.0610043 C25.9265238,55.0957025 25.2333727,55.4204561 24.7278374,55.9761696 C24.2217613,56.531341 23.9627758,57.2502445 23.9968387,58.0016777 C24.0000827,58.074327 24.0184658,58.1426391 24.026576,58.213662 C23.2371839,58.1892649 22.4423851,58.4836575 21.8698055,59.1131047 C21.361026,59.6677339 21.0993372,60.3871796 21.1339406,61.1413236 C21.136644,61.2123465 21.1550271,61.2801164 21.1631373,61.3505971 C21.0906863,61.3495128 21.0214793,61.3370431 20.9490283,61.3424647 C20.2001871,61.377163 19.5091987,61.7019165 19.0036634,62.2549192 C17.9601519,63.4005024 18.0401725,65.1825808 19.1804656,66.2289487 L27.8854057,74.2106214 L26.7267295,75.4809012 L38.1745368,85.9781942 C39.3040163,87.0142611 40.7865595,87.5613 42.4588812,87.5640108 C43.3342413,87.5640108 44.2279846,87.4002787 45.102804,87.109139 L48.426361,90.1549913 L47.6986064,90.9530501 L53.7866576,96.5356669 L60.6478806,103.755063 L60.650584,103.754521 C62.4083331,106.239238 65.293399,107.86897 68.5553185,107.86897 C70.1481603,107.86897 71.6490866,107.474278 72.9759142,106.788446 C76.9688323,106.75429 80.2226416,105.480757 82.6421824,102.990618 C87.3731282,98.12311 87.2282261,90.419023 87.2206565,90.1127028 L87.2206565,59.9252597 Z" id="Stroke-3" stroke="#3C4A69" stroke-width="0.7" stroke-linecap="round" stroke-linejoin="round"></path>
                <g id="Fill-7">
                    <use fill="black" fill-opacity="1" filter="url(#filter-2)" xlink:href="#path-1"></use>
                    <use fill="#3C4A69" fill-rule="evenodd" xlink:href="#path-1"></use>
                </g>
                <path d="M114.75,25.7382812 C114.539061,25.7382812 114.363282,25.6679695 114.222656,25.5273438 C114.082031,25.386718 114.011719,25.2109386 114.011719,25 L114.011719,22.75 L110.988281,22.75 C110.566404,22.75 110.214845,22.6035171 109.933594,22.3105469 C109.652342,22.0175767 109.511719,21.6601584 109.511719,21.2382812 L109.511719,12.2382812 C109.511719,11.8164041 109.652342,11.4648452 109.933594,11.1835938 C110.214845,10.9023423 110.566404,10.7617188 110.988281,10.7617188 L123.011719,10.7617188 C123.433596,10.7617188 123.785155,10.9023423 124.066406,11.1835938 C124.347658,11.4648452 124.488281,11.8164041 124.488281,12.2382812 L124.488281,21.2382812 C124.488281,21.6601584 124.347658,22.0175767 124.066406,22.3105469 C123.785155,22.6035171 123.433596,22.75 123.011719,22.75 L118.441406,22.75 L115.664062,25.5273438 C115.499999,25.6679695 115.32422,25.7382812 115.136719,25.7382812 L114.75,25.7382812 Z" id="" fill="#FFFFFF" fill-rule="nonzero"></path>
            </g>
        </g>
    </g>
</svg>
