<svg width="14px" height="12px" viewBox="0 0 14 12" version="1.1" xmlns="http://www.w3.org/2000/svg" xmlns:xlink="http://www.w3.org/1999/xlink">
    <g id="Symbols" stroke="none" stroke-width="1" fill="none" fill-rule="evenodd">
        <g id="Footer-2" transform="translate(-1502.000000, -243.000000)" fill="#121929" fill-rule="nonzero">
            <path d="M1515.96875,245 C1515.57291,245.583336 1515.09375,246.083331 1514.53125,246.5 L1514.5625,246.875 C1514.54167,248.854177 1513.83855,250.677075 1512.45312,252.34375 C1511.0677,254.010425 1509.0521,254.895833 1506.40625,255 C1505.59375,255 1504.81771,254.885418 1504.07812,254.65625 C1503.33854,254.427082 1502.65625,254.114585 1502.03125,253.71875 C1502.26042,253.739583 1502.48958,253.75 1502.71875,253.75 C1503.38542,253.75 1504.02083,253.645834 1504.625,253.4375 C1505.22917,253.229166 1505.77083,252.927085 1506.25,252.53125 C1505.625,252.510417 1505.07292,252.31771 1504.59375,251.953125 C1504.11458,251.58854 1503.78125,251.114586 1503.59375,250.53125 C1503.76042,250.572917 1503.9375,250.59375 1504.125,250.59375 C1504.39583,250.59375 1504.64583,250.5625 1504.875,250.5 C1504.20833,250.354166 1503.66146,250.026044 1503.23438,249.515625 C1502.80729,249.005206 1502.59375,248.395837 1502.59375,247.6875 L1502.59375,247.65625 C1502.96875,247.864584 1503.39583,247.979167 1503.875,248 C1503.5,247.749999 1503.19792,247.416669 1502.96875,247 C1502.73958,246.583331 1502.625,246.119794 1502.625,245.609375 C1502.625,245.098956 1502.75,244.625002 1503,244.1875 C1503.70834,245.062504 1504.5677,245.760414 1505.57812,246.28125 C1506.58855,246.802086 1507.69791,247.104166 1508.90625,247.1875 C1508.84375,246.979166 1508.8125,246.760418 1508.8125,246.53125 C1508.83333,245.718746 1509.11458,245.041669 1509.65625,244.5 C1510.19792,243.958331 1510.86458,243.677083 1511.65625,243.65625 C1512.53125,243.677083 1513.23958,243.979164 1513.78125,244.5625 C1514.42709,244.437499 1515.03125,244.208335 1515.59375,243.875 C1515.36458,244.562503 1514.94792,245.093748 1514.34375,245.46875 C1514.90625,245.385416 1515.44791,245.229168 1515.96875,245 Z" id="twitter"></path>
        </g>
    </g>
</svg>
